%
M48
M72
T01C0.0120
T02C0.0200
T03C0.0236
T04C0.0315
T05C0.0335
T06C0.0400
T07C0.1260
%
T01
X9844Y18276
X11222Y18670
X12639Y15835
X9844Y17883
X12797Y15993
X9450Y14339
X10435Y15520
X11222Y15442
X13387Y15442
X10828Y15127
X13387Y15127
X8466Y14339
X6104Y11977
X9844Y15914
X7679Y14733
X8466Y13946
X3348Y5087
X10986Y13946
X13033Y5245
X11301Y13946
X13033Y5599
X13191Y11583
X11813Y11583
X9962Y17253
X9214Y19300
X10828Y16072
X8899Y19300
X13387Y15835
X13702Y17489
X13072Y15835
X13387Y17489
X11419Y19851
T02
X10903Y12371
X11403Y12371
X11903Y12371
X12403Y12371
T03
X5120Y12371
X6104Y10402
X3545Y6072
X7876Y6662
X14765Y16898
X4726Y12371
X5907Y19457
X5120Y4694
X12009Y8434
X9844Y8631
X16931Y10402
X14569Y13552
X8072Y16898
X14962Y3631
X6301Y16898
X5317Y15520
X9057Y12765
X13978Y7253
X13978Y7646
X13978Y8040
X13978Y16702
X13978Y17095
X11419Y8434
X10631Y10993
X8072Y18867
X8072Y18473
T04
X1773Y9146
X1773Y8146
X1773Y7146
X1773Y6146
X1773Y16446
X1773Y15446
X1773Y14446
X1773Y13446
X1773Y12446
X1773Y11446
X18309Y13233
X18309Y14233
X18309Y15233
X18309Y16233
T05
X13624Y3001
X15120Y3001
T06
X11978Y19351
X11978Y20351
X12978Y19351
X12978Y20351
X13978Y19351
X13978Y20351
X14978Y19351
X14978Y20351
X15978Y19351
X15978Y20351
T07
X1773Y2922
X18309Y2922
X1773Y19457
X18309Y19457
M30
