G75*
%MOIN*%
%OFA0B0*%
%FSLAX24Y24*%
%IPPOS*%
%LPD*%
%AMOC8*
5,1,8,0,0,1.08239X$1,22.5*
%
%ADD10C,0.0000*%
%ADD11R,0.0240X0.0870*%
%ADD12R,0.0866X0.0236*%
%ADD13R,0.0515X0.0515*%
%ADD14C,0.0515*%
%ADD15R,0.0433X0.0394*%
%ADD16R,0.0394X0.0433*%
%ADD17R,0.0551X0.0394*%
%ADD18R,0.0591X0.0512*%
%ADD19R,0.0472X0.0236*%
%ADD20R,0.0394X0.0551*%
%ADD21R,0.0512X0.0591*%
%ADD22R,0.0197X0.0551*%
%ADD23R,0.1654X0.0984*%
%ADD24R,0.0079X0.0394*%
%ADD25R,0.0394X0.0079*%
%ADD26R,0.0709X0.0591*%
%ADD27R,0.0984X0.0591*%
%ADD28R,0.0157X0.0551*%
%ADD29R,0.0600X0.1000*%
%ADD30R,0.0500X0.0250*%
%ADD31R,0.0315X0.0315*%
%ADD32R,0.0157X0.0827*%
%ADD33C,0.0400*%
%ADD34R,0.0276X0.0551*%
%ADD35OC8,0.0740*%
%ADD36C,0.0197*%
%ADD37C,0.0315*%
%ADD38C,0.0356*%
%ADD39C,0.0320*%
%ADD40C,0.0079*%
%ADD41C,0.0157*%
%ADD42C,0.0060*%
%ADD43C,0.0240*%
%ADD44C,0.0394*%
%ADD45C,0.0500*%
%ADD46C,0.0160*%
%ADD47C,0.0787*%
D10*
X001183Y001347D02*
X018899Y001347D01*
X018961Y001349D01*
X019022Y001355D01*
X019083Y001364D01*
X019144Y001378D01*
X019203Y001395D01*
X019261Y001416D01*
X019318Y001441D01*
X019373Y001469D01*
X019426Y001500D01*
X019477Y001535D01*
X019526Y001573D01*
X019573Y001614D01*
X019616Y001657D01*
X019657Y001704D01*
X019695Y001753D01*
X019730Y001804D01*
X019761Y001857D01*
X019789Y001912D01*
X019814Y001969D01*
X019835Y002027D01*
X019852Y002086D01*
X019866Y002147D01*
X019875Y002208D01*
X019881Y002269D01*
X019883Y002331D01*
X019883Y020048D01*
X019881Y020110D01*
X019875Y020171D01*
X019866Y020232D01*
X019852Y020293D01*
X019835Y020352D01*
X019814Y020410D01*
X019789Y020467D01*
X019761Y020522D01*
X019730Y020575D01*
X019695Y020626D01*
X019657Y020675D01*
X019616Y020722D01*
X019573Y020765D01*
X019526Y020806D01*
X019477Y020844D01*
X019426Y020879D01*
X019373Y020910D01*
X019318Y020938D01*
X019261Y020963D01*
X019203Y020984D01*
X019144Y021001D01*
X019083Y021015D01*
X019022Y021024D01*
X018961Y021030D01*
X018899Y021032D01*
X001183Y021032D01*
X001121Y021030D01*
X001060Y021024D01*
X000999Y021015D01*
X000938Y021001D01*
X000879Y020984D01*
X000821Y020963D01*
X000764Y020938D01*
X000709Y020910D01*
X000656Y020879D01*
X000605Y020844D01*
X000556Y020806D01*
X000509Y020765D01*
X000466Y020722D01*
X000425Y020675D01*
X000387Y020626D01*
X000352Y020575D01*
X000321Y020522D01*
X000293Y020467D01*
X000268Y020410D01*
X000247Y020352D01*
X000230Y020293D01*
X000216Y020232D01*
X000207Y020171D01*
X000201Y020110D01*
X000199Y020048D01*
X000198Y020048D02*
X000198Y002331D01*
X000199Y002331D02*
X000201Y002269D01*
X000207Y002208D01*
X000216Y002147D01*
X000230Y002086D01*
X000247Y002027D01*
X000268Y001969D01*
X000293Y001912D01*
X000321Y001857D01*
X000352Y001804D01*
X000387Y001753D01*
X000425Y001704D01*
X000466Y001657D01*
X000509Y001614D01*
X000556Y001573D01*
X000605Y001535D01*
X000656Y001500D01*
X000709Y001469D01*
X000764Y001441D01*
X000821Y001416D01*
X000879Y001395D01*
X000938Y001378D01*
X000999Y001364D01*
X001060Y001355D01*
X001121Y001349D01*
X001183Y001347D01*
X001143Y002922D02*
X001145Y002972D01*
X001151Y003022D01*
X001161Y003071D01*
X001175Y003119D01*
X001192Y003166D01*
X001213Y003211D01*
X001238Y003255D01*
X001266Y003296D01*
X001298Y003335D01*
X001332Y003372D01*
X001369Y003406D01*
X001409Y003436D01*
X001451Y003463D01*
X001495Y003487D01*
X001541Y003508D01*
X001588Y003524D01*
X001636Y003537D01*
X001686Y003546D01*
X001735Y003551D01*
X001786Y003552D01*
X001836Y003549D01*
X001885Y003542D01*
X001934Y003531D01*
X001982Y003516D01*
X002028Y003498D01*
X002073Y003476D01*
X002116Y003450D01*
X002157Y003421D01*
X002196Y003389D01*
X002232Y003354D01*
X002264Y003316D01*
X002294Y003276D01*
X002321Y003233D01*
X002344Y003189D01*
X002363Y003143D01*
X002379Y003095D01*
X002391Y003046D01*
X002399Y002997D01*
X002403Y002947D01*
X002403Y002897D01*
X002399Y002847D01*
X002391Y002798D01*
X002379Y002749D01*
X002363Y002701D01*
X002344Y002655D01*
X002321Y002611D01*
X002294Y002568D01*
X002264Y002528D01*
X002232Y002490D01*
X002196Y002455D01*
X002157Y002423D01*
X002116Y002394D01*
X002073Y002368D01*
X002028Y002346D01*
X001982Y002328D01*
X001934Y002313D01*
X001885Y002302D01*
X001836Y002295D01*
X001786Y002292D01*
X001735Y002293D01*
X001686Y002298D01*
X001636Y002307D01*
X001588Y002320D01*
X001541Y002336D01*
X001495Y002357D01*
X001451Y002381D01*
X001409Y002408D01*
X001369Y002438D01*
X001332Y002472D01*
X001298Y002509D01*
X001266Y002548D01*
X001238Y002589D01*
X001213Y002633D01*
X001192Y002678D01*
X001175Y002725D01*
X001161Y002773D01*
X001151Y002822D01*
X001145Y002872D01*
X001143Y002922D01*
X013457Y003001D02*
X013459Y003026D01*
X013465Y003051D01*
X013474Y003075D01*
X013487Y003097D01*
X013504Y003117D01*
X013523Y003134D01*
X013544Y003148D01*
X013568Y003158D01*
X013592Y003165D01*
X013618Y003168D01*
X013643Y003167D01*
X013668Y003162D01*
X013692Y003153D01*
X013715Y003141D01*
X013735Y003126D01*
X013753Y003107D01*
X013768Y003086D01*
X013779Y003063D01*
X013787Y003039D01*
X013791Y003014D01*
X013791Y002988D01*
X013787Y002963D01*
X013779Y002939D01*
X013768Y002916D01*
X013753Y002895D01*
X013735Y002876D01*
X013715Y002861D01*
X013692Y002849D01*
X013668Y002840D01*
X013643Y002835D01*
X013618Y002834D01*
X013592Y002837D01*
X013568Y002844D01*
X013544Y002854D01*
X013523Y002868D01*
X013504Y002885D01*
X013487Y002905D01*
X013474Y002927D01*
X013465Y002951D01*
X013459Y002976D01*
X013457Y003001D01*
X014953Y003001D02*
X014955Y003026D01*
X014961Y003051D01*
X014970Y003075D01*
X014983Y003097D01*
X015000Y003117D01*
X015019Y003134D01*
X015040Y003148D01*
X015064Y003158D01*
X015088Y003165D01*
X015114Y003168D01*
X015139Y003167D01*
X015164Y003162D01*
X015188Y003153D01*
X015211Y003141D01*
X015231Y003126D01*
X015249Y003107D01*
X015264Y003086D01*
X015275Y003063D01*
X015283Y003039D01*
X015287Y003014D01*
X015287Y002988D01*
X015283Y002963D01*
X015275Y002939D01*
X015264Y002916D01*
X015249Y002895D01*
X015231Y002876D01*
X015211Y002861D01*
X015188Y002849D01*
X015164Y002840D01*
X015139Y002835D01*
X015114Y002834D01*
X015088Y002837D01*
X015064Y002844D01*
X015040Y002854D01*
X015019Y002868D01*
X015000Y002885D01*
X014983Y002905D01*
X014970Y002927D01*
X014961Y002951D01*
X014955Y002976D01*
X014953Y003001D01*
X017679Y002922D02*
X017681Y002972D01*
X017687Y003022D01*
X017697Y003071D01*
X017711Y003119D01*
X017728Y003166D01*
X017749Y003211D01*
X017774Y003255D01*
X017802Y003296D01*
X017834Y003335D01*
X017868Y003372D01*
X017905Y003406D01*
X017945Y003436D01*
X017987Y003463D01*
X018031Y003487D01*
X018077Y003508D01*
X018124Y003524D01*
X018172Y003537D01*
X018222Y003546D01*
X018271Y003551D01*
X018322Y003552D01*
X018372Y003549D01*
X018421Y003542D01*
X018470Y003531D01*
X018518Y003516D01*
X018564Y003498D01*
X018609Y003476D01*
X018652Y003450D01*
X018693Y003421D01*
X018732Y003389D01*
X018768Y003354D01*
X018800Y003316D01*
X018830Y003276D01*
X018857Y003233D01*
X018880Y003189D01*
X018899Y003143D01*
X018915Y003095D01*
X018927Y003046D01*
X018935Y002997D01*
X018939Y002947D01*
X018939Y002897D01*
X018935Y002847D01*
X018927Y002798D01*
X018915Y002749D01*
X018899Y002701D01*
X018880Y002655D01*
X018857Y002611D01*
X018830Y002568D01*
X018800Y002528D01*
X018768Y002490D01*
X018732Y002455D01*
X018693Y002423D01*
X018652Y002394D01*
X018609Y002368D01*
X018564Y002346D01*
X018518Y002328D01*
X018470Y002313D01*
X018421Y002302D01*
X018372Y002295D01*
X018322Y002292D01*
X018271Y002293D01*
X018222Y002298D01*
X018172Y002307D01*
X018124Y002320D01*
X018077Y002336D01*
X018031Y002357D01*
X017987Y002381D01*
X017945Y002408D01*
X017905Y002438D01*
X017868Y002472D01*
X017834Y002509D01*
X017802Y002548D01*
X017774Y002589D01*
X017749Y002633D01*
X017728Y002678D01*
X017711Y002725D01*
X017697Y002773D01*
X017687Y002822D01*
X017681Y002872D01*
X017679Y002922D01*
X017679Y019457D02*
X017681Y019507D01*
X017687Y019557D01*
X017697Y019606D01*
X017711Y019654D01*
X017728Y019701D01*
X017749Y019746D01*
X017774Y019790D01*
X017802Y019831D01*
X017834Y019870D01*
X017868Y019907D01*
X017905Y019941D01*
X017945Y019971D01*
X017987Y019998D01*
X018031Y020022D01*
X018077Y020043D01*
X018124Y020059D01*
X018172Y020072D01*
X018222Y020081D01*
X018271Y020086D01*
X018322Y020087D01*
X018372Y020084D01*
X018421Y020077D01*
X018470Y020066D01*
X018518Y020051D01*
X018564Y020033D01*
X018609Y020011D01*
X018652Y019985D01*
X018693Y019956D01*
X018732Y019924D01*
X018768Y019889D01*
X018800Y019851D01*
X018830Y019811D01*
X018857Y019768D01*
X018880Y019724D01*
X018899Y019678D01*
X018915Y019630D01*
X018927Y019581D01*
X018935Y019532D01*
X018939Y019482D01*
X018939Y019432D01*
X018935Y019382D01*
X018927Y019333D01*
X018915Y019284D01*
X018899Y019236D01*
X018880Y019190D01*
X018857Y019146D01*
X018830Y019103D01*
X018800Y019063D01*
X018768Y019025D01*
X018732Y018990D01*
X018693Y018958D01*
X018652Y018929D01*
X018609Y018903D01*
X018564Y018881D01*
X018518Y018863D01*
X018470Y018848D01*
X018421Y018837D01*
X018372Y018830D01*
X018322Y018827D01*
X018271Y018828D01*
X018222Y018833D01*
X018172Y018842D01*
X018124Y018855D01*
X018077Y018871D01*
X018031Y018892D01*
X017987Y018916D01*
X017945Y018943D01*
X017905Y018973D01*
X017868Y019007D01*
X017834Y019044D01*
X017802Y019083D01*
X017774Y019124D01*
X017749Y019168D01*
X017728Y019213D01*
X017711Y019260D01*
X017697Y019308D01*
X017687Y019357D01*
X017681Y019407D01*
X017679Y019457D01*
X001143Y019457D02*
X001145Y019507D01*
X001151Y019557D01*
X001161Y019606D01*
X001175Y019654D01*
X001192Y019701D01*
X001213Y019746D01*
X001238Y019790D01*
X001266Y019831D01*
X001298Y019870D01*
X001332Y019907D01*
X001369Y019941D01*
X001409Y019971D01*
X001451Y019998D01*
X001495Y020022D01*
X001541Y020043D01*
X001588Y020059D01*
X001636Y020072D01*
X001686Y020081D01*
X001735Y020086D01*
X001786Y020087D01*
X001836Y020084D01*
X001885Y020077D01*
X001934Y020066D01*
X001982Y020051D01*
X002028Y020033D01*
X002073Y020011D01*
X002116Y019985D01*
X002157Y019956D01*
X002196Y019924D01*
X002232Y019889D01*
X002264Y019851D01*
X002294Y019811D01*
X002321Y019768D01*
X002344Y019724D01*
X002363Y019678D01*
X002379Y019630D01*
X002391Y019581D01*
X002399Y019532D01*
X002403Y019482D01*
X002403Y019432D01*
X002399Y019382D01*
X002391Y019333D01*
X002379Y019284D01*
X002363Y019236D01*
X002344Y019190D01*
X002321Y019146D01*
X002294Y019103D01*
X002264Y019063D01*
X002232Y019025D01*
X002196Y018990D01*
X002157Y018958D01*
X002116Y018929D01*
X002073Y018903D01*
X002028Y018881D01*
X001982Y018863D01*
X001934Y018848D01*
X001885Y018837D01*
X001836Y018830D01*
X001786Y018827D01*
X001735Y018828D01*
X001686Y018833D01*
X001636Y018842D01*
X001588Y018855D01*
X001541Y018871D01*
X001495Y018892D01*
X001451Y018916D01*
X001409Y018943D01*
X001369Y018973D01*
X001332Y019007D01*
X001298Y019044D01*
X001266Y019083D01*
X001238Y019124D01*
X001213Y019168D01*
X001192Y019213D01*
X001175Y019260D01*
X001161Y019308D01*
X001151Y019357D01*
X001145Y019407D01*
X001143Y019457D01*
D11*
X010472Y010344D03*
X010972Y010344D03*
X011472Y010344D03*
X011972Y010344D03*
X011972Y007694D03*
X011472Y007694D03*
X010972Y007694D03*
X010472Y007694D03*
D12*
X014135Y013983D03*
X014135Y014483D03*
X014135Y014983D03*
X014135Y015483D03*
X016183Y015483D03*
X016183Y014983D03*
X016183Y014483D03*
X016183Y013983D03*
D13*
X018309Y013233D03*
X001773Y016446D03*
X001773Y009146D03*
D14*
X001773Y008146D03*
X001773Y007146D03*
X001773Y006146D03*
X001773Y011446D03*
X001773Y012446D03*
X001773Y013446D03*
X001773Y014446D03*
X001773Y015446D03*
X018309Y015233D03*
X018309Y016233D03*
X018309Y014233D03*
D15*
X016478Y016308D03*
X015809Y016308D03*
X014509Y016308D03*
X013840Y016308D03*
X013328Y016505D03*
X012659Y016505D03*
X011360Y018276D03*
X010691Y018276D03*
X008013Y017489D03*
X007344Y017489D03*
X007226Y016702D03*
X006557Y016702D03*
X006301Y018532D03*
X006301Y019202D03*
X006301Y019713D03*
X006301Y020383D03*
X005513Y019202D03*
X005513Y018532D03*
X005120Y013493D03*
X004529Y013493D03*
X004529Y012824D03*
X005120Y012824D03*
X005317Y011918D03*
X005317Y011249D03*
X006163Y009812D03*
X006832Y009812D03*
X008525Y011387D03*
X009194Y011387D03*
X009194Y012174D03*
X008525Y012174D03*
X003742Y012824D03*
X003742Y013493D03*
X003939Y005422D03*
X003939Y004753D03*
X004726Y004753D03*
X004726Y005422D03*
X005513Y005422D03*
X005513Y004753D03*
X014962Y011052D03*
X014962Y011721D03*
D16*
X014175Y011721D03*
X014175Y011052D03*
X014175Y010540D03*
X014175Y009871D03*
X013387Y009162D03*
X013387Y008493D03*
X009844Y009083D03*
X009844Y009753D03*
X005907Y012824D03*
X005907Y013493D03*
X005317Y014398D03*
X005317Y015068D03*
X005317Y015973D03*
X005317Y016643D03*
X008072Y016643D03*
X008072Y015973D03*
X012009Y017745D03*
X012009Y018414D03*
X005513Y019713D03*
X005513Y020383D03*
X014431Y004103D03*
X015100Y004103D03*
D17*
X004569Y011209D03*
X004569Y011957D03*
X003702Y011583D03*
D18*
X003742Y014398D03*
X003742Y015068D03*
X004529Y015068D03*
X004529Y014398D03*
X004529Y015973D03*
X004529Y016643D03*
X003742Y016643D03*
X003742Y015973D03*
X007482Y007981D03*
X007482Y007312D03*
X013387Y009871D03*
X013387Y010540D03*
D19*
X007679Y012587D03*
X007679Y012961D03*
X007679Y013335D03*
X006773Y013335D03*
X006773Y012961D03*
X006773Y012587D03*
X006380Y015146D03*
X006380Y015520D03*
X006380Y015894D03*
X007285Y015894D03*
X007285Y015520D03*
X007285Y015146D03*
D20*
X006301Y008080D03*
X006675Y007213D03*
X005927Y007213D03*
X008289Y007213D03*
X009037Y007213D03*
X008663Y008080D03*
D21*
X008407Y009024D03*
X007738Y009024D03*
X007738Y009812D03*
X008407Y009812D03*
X006832Y009024D03*
X006163Y009024D03*
X008328Y006465D03*
X008998Y006465D03*
D22*
X005317Y006623D03*
X005002Y006623D03*
X004687Y006623D03*
X004372Y006623D03*
X004057Y006623D03*
X003742Y006623D03*
X003742Y008670D03*
X004057Y008670D03*
X004372Y008670D03*
X004687Y008670D03*
X005002Y008670D03*
X005317Y008670D03*
D23*
X004529Y007646D03*
D24*
X009549Y013257D03*
X009746Y013257D03*
X009943Y013257D03*
X010139Y013257D03*
X010336Y013257D03*
X010533Y013257D03*
X010730Y013257D03*
X010927Y013257D03*
X011124Y013257D03*
X011320Y013257D03*
X011517Y013257D03*
X011714Y013257D03*
X011714Y016603D03*
X011517Y016603D03*
X011320Y016603D03*
X011124Y016603D03*
X010927Y016603D03*
X010730Y016603D03*
X010533Y016603D03*
X010336Y016603D03*
X010139Y016603D03*
X009943Y016603D03*
X009746Y016603D03*
X009549Y016603D03*
D25*
X008958Y016013D03*
X008958Y015816D03*
X008958Y015619D03*
X008958Y015422D03*
X008958Y015225D03*
X008958Y015028D03*
X008958Y014831D03*
X008958Y014635D03*
X008958Y014438D03*
X008958Y014241D03*
X008958Y014044D03*
X008958Y013847D03*
X012305Y013847D03*
X012305Y014044D03*
X012305Y014241D03*
X012305Y014438D03*
X012305Y014635D03*
X012305Y014831D03*
X012305Y015028D03*
X012305Y015225D03*
X012305Y015422D03*
X012305Y015619D03*
X012305Y015816D03*
X012305Y016013D03*
D26*
X012921Y002135D03*
X015822Y002135D03*
D27*
X014372Y002135D03*
D28*
X014372Y003198D03*
X014628Y003198D03*
X014883Y003198D03*
X014116Y003198D03*
X013860Y003198D03*
D29*
X016021Y004937D03*
X017021Y004937D03*
X018021Y004937D03*
X019021Y004937D03*
X019021Y011537D03*
X018021Y011537D03*
X017021Y011537D03*
X016021Y011537D03*
D30*
X004529Y018690D03*
X004529Y019044D03*
X004529Y019871D03*
X004529Y020225D03*
D31*
X007088Y020343D03*
X007088Y019753D03*
X007088Y019162D03*
X007088Y018572D03*
D32*
X009372Y018080D03*
X009844Y018080D03*
X010317Y018080D03*
D33*
X010903Y012371D03*
X011403Y012371D03*
X011903Y012371D03*
X012403Y012371D03*
D34*
X011360Y017686D03*
X010691Y017686D03*
D35*
X011978Y019351D03*
X012978Y019351D03*
X013978Y019351D03*
X014978Y019351D03*
X015978Y019351D03*
X015978Y020351D03*
X014978Y020351D03*
X013978Y020351D03*
X012978Y020351D03*
X011978Y020351D03*
D36*
X013978Y017095D02*
X013978Y016702D01*
X013840Y016308D01*
X013840Y015855D01*
X014135Y015560D01*
X014135Y015483D01*
X014509Y016308D02*
X014509Y016564D01*
X014765Y016898D01*
X015809Y016564D02*
X015809Y016308D01*
X015750Y016308D01*
X015553Y016111D01*
X015553Y014143D01*
X015712Y013983D01*
X016183Y013983D01*
X016183Y014483D02*
X018059Y014483D01*
X018309Y014233D01*
X018899Y013749D02*
X018899Y015520D01*
X018702Y015717D01*
X017521Y015717D01*
X016931Y016308D01*
X016478Y016308D01*
X016734Y016052D01*
X016734Y015717D01*
X016500Y015483D01*
X016183Y015483D01*
X016183Y014983D02*
X018059Y014983D01*
X018309Y015233D01*
X018309Y016233D02*
X017840Y016702D01*
X015946Y016702D01*
X015809Y016564D01*
X014531Y013983D02*
X014135Y013983D01*
X014531Y013983D02*
X014569Y013946D01*
X014569Y013552D01*
X018309Y013233D02*
X018383Y013233D01*
X018899Y013749D01*
X009844Y009753D02*
X009785Y009812D01*
X009254Y009812D01*
X008407Y009812D02*
X008407Y009024D01*
X007738Y009812D02*
X006832Y009812D01*
X006773Y009871D01*
X006832Y009812D02*
X006832Y009024D01*
X006163Y009024D02*
X006163Y009812D01*
X006163Y010343D02*
X006104Y010402D01*
X006163Y010343D02*
X006163Y009024D01*
X005317Y009024D02*
X005317Y008670D01*
X005002Y008670D02*
X005002Y009143D01*
X004923Y009221D01*
X005120Y009221D02*
X005317Y009024D01*
X004726Y009221D02*
X004687Y009182D01*
X004687Y008670D01*
X004372Y008670D02*
X004372Y009182D01*
X004332Y009221D01*
X004135Y009221D02*
X004057Y009143D01*
X004057Y008670D01*
X004057Y009103D01*
X003939Y009221D01*
X003742Y009221D02*
X003742Y008670D01*
X004057Y006623D02*
X004057Y006190D01*
X003939Y006072D01*
X003545Y006072D01*
X003939Y005678D02*
X003939Y005422D01*
X003939Y005678D02*
X004372Y006111D01*
X004372Y006623D01*
X004687Y006623D02*
X004687Y005461D01*
X004726Y005422D01*
X005002Y006190D02*
X005513Y005678D01*
X005513Y005422D01*
X005002Y006190D02*
X005002Y006623D01*
X007876Y010599D02*
X009254Y010599D01*
X009254Y011328D01*
X009194Y011387D01*
X007876Y010599D02*
X007246Y011229D01*
X007246Y012961D01*
X007679Y012961D01*
X006773Y012961D02*
X006104Y012961D01*
X005907Y012765D01*
X005769Y012765D01*
X005907Y012824D01*
X006498Y013355D02*
X006754Y013355D01*
X006773Y013335D01*
X006498Y013355D02*
X006360Y013493D01*
X005907Y013493D01*
X005120Y013493D01*
X003742Y013493D01*
X003742Y012824D02*
X003364Y012446D01*
X001773Y012446D01*
X001773Y014446D02*
X003694Y014446D01*
X003742Y014398D02*
X004529Y014398D01*
X005317Y014398D01*
X005572Y014398D01*
X006320Y015146D01*
X006380Y015146D01*
X006380Y015520D02*
X005317Y015520D01*
X006320Y015894D02*
X005572Y016643D01*
X005317Y016643D01*
X004529Y016643D01*
X003742Y016643D01*
X003289Y016643D01*
X002092Y015446D01*
X001773Y015446D01*
X001380Y014930D02*
X001183Y015127D01*
X001183Y016308D01*
X001320Y016446D01*
X001773Y016446D01*
X002954Y015520D02*
X002364Y014930D01*
X001380Y014930D01*
X002954Y015520D02*
X003742Y015520D01*
X006320Y015894D02*
X006380Y015894D01*
X006852Y016150D02*
X006852Y015520D01*
X007285Y015520D01*
X006852Y016150D02*
X007226Y016524D01*
X007226Y016702D01*
X005317Y011249D02*
X005277Y011209D01*
X004569Y011209D01*
D37*
X004569Y011957D02*
X005277Y011957D01*
X005317Y011918D01*
X005317Y011977D01*
X004726Y012371D01*
X005120Y012371D01*
X005317Y011977D01*
X005120Y012371D02*
X005120Y012765D01*
X005120Y012824D01*
X005907Y012824D01*
X004923Y012765D02*
X004726Y012371D01*
X004726Y011977D01*
X003702Y011583D02*
X003565Y011446D01*
X001773Y011446D01*
X003742Y014398D02*
X003694Y014446D01*
X003742Y015068D02*
X003742Y015520D01*
X003742Y015973D01*
X004529Y015973D02*
X005317Y015973D01*
X005317Y015520D01*
X005317Y015068D01*
X004529Y015068D01*
X006301Y016898D02*
X006498Y016702D01*
X006557Y016702D01*
X007226Y016702D02*
X007226Y017371D01*
X007344Y017489D01*
X004529Y017489D01*
X003151Y017489D01*
X002108Y016446D01*
X001773Y016446D01*
X009254Y010599D02*
X009254Y009812D01*
X009254Y007213D01*
X009037Y007213D02*
X009037Y006505D01*
X008998Y006465D01*
X008328Y006465D02*
X008328Y007174D01*
X007876Y006721D01*
X007876Y006662D01*
X007580Y007213D02*
X007482Y007312D01*
X007580Y007213D02*
X008289Y007213D01*
X008328Y007174D01*
X007482Y007981D02*
X007580Y008080D01*
X013387Y008237D02*
X013978Y008040D01*
X013978Y007646D01*
X013978Y007253D01*
D38*
X013978Y007253D03*
X013978Y007646D03*
X013978Y008040D03*
X012009Y008434D03*
X011419Y008434D03*
X009844Y008631D03*
X007876Y006662D03*
X005120Y004694D03*
X003545Y006072D03*
X006104Y010402D03*
X005120Y012371D03*
X004726Y012371D03*
X005317Y015520D03*
X006301Y016898D03*
X008072Y016898D03*
X008072Y018473D03*
X008072Y018867D03*
X005907Y019457D03*
X009057Y012765D03*
X010631Y010993D03*
X014569Y013552D03*
X013978Y016702D03*
X013978Y017095D03*
X014765Y016898D03*
X016931Y010402D03*
X014962Y003631D03*
D39*
X013387Y008237D02*
X013387Y008493D01*
X013387Y009162D02*
X013387Y009871D01*
X014175Y009871D01*
X017580Y009871D01*
X018021Y010312D01*
X018021Y011537D01*
X017021Y011537D02*
X017021Y010493D01*
X016931Y010402D01*
X014569Y010402D01*
X014175Y010796D01*
X014175Y011052D01*
X014175Y010540D01*
X013387Y010540D01*
X014175Y011721D02*
X014962Y011721D01*
X014962Y011052D02*
X015536Y011052D01*
X016021Y011537D01*
X008072Y016643D02*
X008072Y016898D01*
X008072Y017489D02*
X008013Y017489D01*
X008072Y017489D02*
X008072Y018867D01*
X004529Y012824D02*
X004529Y012765D01*
X005120Y012765D01*
X004726Y012371D02*
X004529Y012568D01*
X004529Y012765D01*
D40*
X004529Y017489D02*
X004529Y018690D01*
X004529Y019044D02*
X005002Y019044D01*
X005513Y018532D01*
X005513Y019202D02*
X005513Y019261D01*
X005710Y019261D01*
X005907Y019457D01*
X006163Y019202D01*
X006301Y019202D01*
X006301Y019261D02*
X006301Y019654D01*
X006301Y019713D02*
X006163Y019713D01*
X005907Y019457D01*
X005651Y019713D01*
X005513Y019713D01*
X005513Y019261D01*
X005513Y019713D02*
X004687Y019713D01*
X004529Y019871D01*
X004529Y020225D02*
X004687Y020383D01*
X005513Y020383D01*
X006301Y020383D02*
X007049Y020383D01*
X007088Y020343D01*
X007088Y018572D02*
X007049Y018532D01*
X006301Y018532D01*
D41*
X009450Y013749D02*
X008525Y012824D01*
X008525Y012174D01*
X008525Y011387D01*
X009194Y012174D02*
X009194Y012509D01*
X009057Y012765D01*
X010631Y010993D02*
X010828Y010993D01*
X010972Y010849D01*
X010972Y010344D01*
X010472Y010344D02*
X010472Y010833D01*
X010631Y010993D01*
X010472Y010833D02*
X009844Y010206D01*
X009844Y009753D01*
X009844Y009083D02*
X009844Y008631D01*
X011419Y008434D02*
X011472Y008381D01*
X011472Y007694D01*
X011972Y007694D02*
X011972Y008274D01*
X012009Y008434D01*
X013781Y004103D02*
X008860Y004103D01*
X006675Y006288D01*
X006675Y007213D01*
X005513Y004753D02*
X005179Y004753D01*
X005120Y004694D01*
X005061Y004753D01*
X004726Y004753D01*
X013781Y004103D02*
X013860Y004024D01*
X013860Y003198D01*
X014883Y003198D02*
X014883Y003552D01*
X014962Y003631D01*
X012659Y016505D02*
X012659Y016761D01*
X012994Y017095D01*
X013978Y017095D01*
D42*
X013702Y017489D02*
X013702Y017607D01*
X014569Y018473D01*
X015159Y018473D01*
X015750Y019064D01*
X015750Y019123D01*
X015978Y019351D01*
X015474Y018985D02*
X015474Y019851D01*
X015974Y020351D01*
X015978Y020351D01*
X014978Y020351D02*
X014970Y020351D01*
X014470Y019851D01*
X014470Y018965D01*
X014135Y018631D01*
X013939Y018631D01*
X012049Y016741D01*
X012049Y016505D01*
X011655Y016111D01*
X011655Y015678D01*
X011911Y015422D01*
X012305Y015422D01*
X012305Y015225D02*
X011911Y015225D01*
X011065Y016072D01*
X010828Y016072D01*
X010730Y016603D02*
X010730Y016800D01*
X010041Y017489D01*
X009647Y017489D01*
X009372Y017765D01*
X009372Y018080D01*
X009844Y018080D02*
X009844Y018276D01*
X010317Y018080D02*
X010317Y017410D01*
X010927Y016800D01*
X010927Y016603D01*
X011124Y016603D02*
X011124Y016800D01*
X010691Y017233D01*
X010691Y017686D01*
X010691Y018276D01*
X011222Y018670D02*
X011360Y018532D01*
X011360Y018276D01*
X011872Y018276D01*
X012009Y018414D01*
X012600Y018670D02*
X012978Y019048D01*
X012978Y019351D01*
X012502Y019064D02*
X012403Y018965D01*
X012403Y017489D01*
X012206Y017292D01*
X011813Y017292D01*
X011517Y016997D01*
X011517Y016603D01*
X011320Y016603D02*
X011320Y017646D01*
X011360Y017686D01*
X011419Y017745D01*
X012009Y017745D01*
X012600Y017489D02*
X012600Y018670D01*
X012502Y019064D02*
X012502Y019973D01*
X012880Y020351D01*
X012978Y020351D01*
X013494Y020835D02*
X013978Y020351D01*
X013494Y020835D02*
X011222Y020835D01*
X008860Y018473D01*
X008860Y017489D01*
X009549Y016800D01*
X009549Y016603D01*
X009746Y016603D02*
X009746Y016800D01*
X009057Y017489D01*
X009057Y018473D01*
X010435Y019851D01*
X011419Y019851D01*
X009214Y019694D02*
X009214Y019300D01*
X008899Y019300D02*
X008899Y019418D01*
X008269Y020048D01*
X006694Y020048D01*
X006694Y018867D01*
X005848Y018867D01*
X005513Y018532D01*
X007088Y019162D02*
X007383Y019457D01*
X008072Y019457D01*
X008466Y019064D01*
X008466Y016111D01*
X008761Y015816D01*
X008958Y015816D01*
X008958Y016013D02*
X008761Y016013D01*
X008663Y016111D01*
X008663Y019261D01*
X008171Y019753D01*
X007088Y019753D01*
X008072Y020835D02*
X005966Y020835D01*
X005513Y020383D01*
X005572Y020442D01*
X008072Y020835D02*
X009214Y019694D01*
X008013Y017489D02*
X007679Y017154D01*
X007679Y016308D01*
X008013Y015973D01*
X008072Y015973D01*
X008072Y015717D01*
X008565Y015225D01*
X008958Y015225D01*
X008958Y015028D02*
X008368Y015028D01*
X007502Y015894D01*
X007285Y015894D01*
X007285Y015146D02*
X007305Y015127D01*
X007679Y015127D01*
X007974Y014831D01*
X008958Y014831D01*
X008958Y014635D02*
X008368Y014635D01*
X008072Y014339D01*
X008072Y012765D01*
X007895Y012587D01*
X007679Y012587D01*
X007679Y013335D02*
X007679Y014733D01*
X008466Y014339D02*
X008565Y014438D01*
X008958Y014438D01*
X008958Y014241D02*
X008761Y014241D01*
X008466Y013946D01*
X008958Y014044D02*
X009299Y014044D01*
X009397Y014143D01*
X009397Y014286D01*
X009450Y014339D01*
X009352Y013847D02*
X008958Y013847D01*
X009352Y013847D02*
X009450Y013749D01*
X010139Y014438D01*
X010139Y016603D01*
X009943Y016603D02*
X009943Y016013D01*
X009844Y015914D01*
X010336Y015619D02*
X010435Y015520D01*
X010336Y015619D02*
X010336Y016603D01*
X010533Y016603D02*
X010533Y016800D01*
X010041Y017292D01*
X009962Y017253D01*
X011714Y016997D02*
X011714Y016603D01*
X011714Y016997D02*
X011813Y017095D01*
X012206Y017095D01*
X012600Y017489D01*
X012206Y016702D02*
X013978Y018473D01*
X014175Y018473D01*
X014978Y019276D01*
X014978Y019351D01*
X015474Y018985D02*
X015120Y018631D01*
X014529Y018631D01*
X013387Y017489D01*
X013328Y016505D02*
X013309Y016505D01*
X012797Y015993D01*
X012639Y015835D01*
X012620Y015816D01*
X012305Y015816D01*
X012305Y016013D02*
X012502Y016013D01*
X012659Y016170D01*
X012659Y016505D01*
X012206Y016465D02*
X012206Y016702D01*
X012206Y016465D02*
X011813Y016072D01*
X011813Y015717D01*
X011911Y015619D01*
X012305Y015619D01*
X012797Y015520D02*
X012797Y015324D01*
X012502Y015028D01*
X012305Y015028D01*
X012305Y014831D02*
X012541Y014831D01*
X013112Y015402D01*
X013112Y015520D01*
X013191Y015599D01*
X013387Y015835D01*
X013072Y015835D02*
X012797Y015520D01*
X013387Y015442D02*
X013846Y014983D01*
X014135Y014983D01*
X014135Y014483D02*
X013637Y014483D01*
X013387Y014733D01*
X013387Y015127D01*
X013092Y014635D02*
X013191Y014536D01*
X013191Y011977D01*
X011972Y010759D01*
X011972Y010344D01*
X011472Y010344D02*
X011472Y010849D01*
X012797Y012174D01*
X012797Y014143D01*
X012698Y014241D01*
X012305Y014241D01*
X012305Y014438D02*
X012895Y014438D01*
X012994Y014339D01*
X012994Y012095D01*
X011734Y010835D01*
X011734Y009300D01*
X010972Y008538D01*
X010972Y007694D01*
X010472Y007694D02*
X010472Y008471D01*
X011222Y009221D01*
X011222Y010993D01*
X009746Y012469D01*
X009746Y013257D01*
X009549Y013257D02*
X009549Y013650D01*
X009450Y013749D01*
X010139Y013257D02*
X010139Y012666D01*
X011222Y011583D01*
X011813Y011583D01*
X011903Y012371D02*
X011903Y012658D01*
X012600Y013355D01*
X012600Y013749D01*
X012502Y013847D01*
X012305Y013847D01*
X012305Y014635D02*
X013092Y014635D01*
X011320Y013257D02*
X011320Y012863D01*
X010903Y012446D01*
X010903Y012371D01*
X010927Y013257D02*
X010927Y013847D01*
X010986Y013946D01*
X011301Y013946D02*
X011124Y013650D01*
X011124Y013257D01*
X010730Y013257D02*
X010730Y014635D01*
X011222Y015127D01*
X011222Y015442D01*
X010828Y015127D02*
X010533Y014831D01*
X010533Y013257D01*
X013191Y011583D02*
X013328Y011721D01*
X014175Y011721D01*
X013387Y006859D02*
X015100Y005146D01*
X015100Y004103D01*
X014431Y004103D02*
X014372Y004044D01*
X014372Y003198D01*
X014116Y003198D02*
X014116Y004162D01*
X013033Y005245D01*
X013033Y005599D02*
X014431Y004202D01*
X014431Y004103D01*
X006104Y011780D02*
X006104Y011977D01*
X006104Y011780D02*
X005572Y011249D01*
X005317Y011249D01*
X003348Y005087D02*
X003348Y004891D01*
X003486Y004753D01*
X003939Y004753D01*
D43*
X003348Y005087D03*
X006104Y011977D03*
X008466Y013946D03*
X008466Y014339D03*
X007679Y014733D03*
X009450Y014339D03*
X010435Y015520D03*
X010828Y015127D03*
X011222Y015442D03*
X010828Y016072D03*
X009844Y015914D03*
X009962Y017253D03*
X009844Y017883D03*
X009844Y018276D03*
X009214Y019300D03*
X008899Y019300D03*
X011222Y018670D03*
X011419Y019851D03*
X013387Y017489D03*
X013702Y017489D03*
X013387Y015835D03*
X013072Y015835D03*
X012797Y015993D03*
X012639Y015835D03*
X013387Y015442D03*
X013387Y015127D03*
X011301Y013946D03*
X010986Y013946D03*
X011813Y011583D03*
X013191Y011583D03*
X013033Y005599D03*
X013033Y005245D03*
D44*
X013387Y006859D02*
X013978Y007253D01*
X013387Y006859D02*
X009844Y006859D01*
X009490Y007213D01*
X009254Y007213D01*
X009037Y007213D01*
X007738Y008237D02*
X007482Y007981D01*
X007383Y008080D01*
X006301Y008080D01*
X005494Y007646D02*
X005927Y007213D01*
X005494Y007646D02*
X005317Y007646D01*
X004529Y007646D01*
X007738Y008237D02*
X007738Y009024D01*
D45*
X007580Y008080D02*
X008663Y008080D01*
D46*
X006832Y009812D02*
X006832Y010658D01*
X006498Y010993D01*
X006498Y012568D01*
X006517Y012587D01*
X006773Y012587D01*
X005317Y007646D02*
X005317Y006623D01*
X003742Y006623D02*
X003742Y007646D01*
D47*
X003151Y007646D01*
X002651Y007146D01*
X001773Y007146D01*
X001773Y009146D02*
X003273Y009146D01*
X003348Y009221D01*
X003742Y009221D01*
X003939Y009221D01*
X004135Y009221D01*
X004332Y009221D01*
X004726Y009221D01*
X004923Y009221D01*
X005120Y009221D01*
X004529Y007646D02*
X003742Y007646D01*
M02*
