G75*
%MOIN*%
%OFA0B0*%
%FSLAX24Y24*%
%IPPOS*%
%LPD*%
%AMOC8*
5,1,8,0,0,1.08239X$1,22.5*
%
%ADD10C,0.0000*%
%ADD11R,0.0434X0.0197*%
%ADD12R,0.0280X0.0910*%
%ADD13R,0.0906X0.0276*%
%ADD14R,0.0555X0.0555*%
%ADD15C,0.0555*%
%ADD16R,0.0473X0.0434*%
%ADD17R,0.0434X0.0473*%
%ADD18R,0.0591X0.0434*%
%ADD19R,0.0631X0.0552*%
%ADD20R,0.0512X0.0276*%
%ADD21R,0.0640X0.0340*%
%ADD22R,0.0434X0.0591*%
%ADD23R,0.0552X0.0631*%
%ADD24R,0.0237X0.0591*%
%ADD25R,0.1694X0.1024*%
%ADD26R,0.0512X0.0394*%
%ADD27C,0.1300*%
D10*
X000198Y001183D02*
X000198Y018899D01*
X000199Y018899D02*
X000201Y018961D01*
X000207Y019022D01*
X000216Y019083D01*
X000230Y019144D01*
X000247Y019203D01*
X000268Y019261D01*
X000293Y019318D01*
X000321Y019373D01*
X000352Y019426D01*
X000387Y019477D01*
X000425Y019526D01*
X000466Y019573D01*
X000509Y019616D01*
X000556Y019657D01*
X000605Y019695D01*
X000656Y019730D01*
X000709Y019761D01*
X000764Y019789D01*
X000821Y019814D01*
X000879Y019835D01*
X000938Y019852D01*
X000999Y019866D01*
X001060Y019875D01*
X001121Y019881D01*
X001183Y019883D01*
X018899Y019883D01*
X018961Y019881D01*
X019022Y019875D01*
X019083Y019866D01*
X019144Y019852D01*
X019203Y019835D01*
X019261Y019814D01*
X019318Y019789D01*
X019373Y019761D01*
X019426Y019730D01*
X019477Y019695D01*
X019526Y019657D01*
X019573Y019616D01*
X019616Y019573D01*
X019657Y019526D01*
X019695Y019477D01*
X019730Y019426D01*
X019761Y019373D01*
X019789Y019318D01*
X019814Y019261D01*
X019835Y019203D01*
X019852Y019144D01*
X019866Y019083D01*
X019875Y019022D01*
X019881Y018961D01*
X019883Y018899D01*
X019883Y001183D01*
X019881Y001121D01*
X019875Y001060D01*
X019866Y000999D01*
X019852Y000938D01*
X019835Y000879D01*
X019814Y000821D01*
X019789Y000764D01*
X019761Y000709D01*
X019730Y000656D01*
X019695Y000605D01*
X019657Y000556D01*
X019616Y000509D01*
X019573Y000466D01*
X019526Y000425D01*
X019477Y000387D01*
X019426Y000352D01*
X019373Y000321D01*
X019318Y000293D01*
X019261Y000268D01*
X019203Y000247D01*
X019144Y000230D01*
X019083Y000216D01*
X019022Y000207D01*
X018961Y000201D01*
X018899Y000199D01*
X018899Y000198D02*
X001183Y000198D01*
X001183Y000199D02*
X001121Y000201D01*
X001060Y000207D01*
X000999Y000216D01*
X000938Y000230D01*
X000879Y000247D01*
X000821Y000268D01*
X000764Y000293D01*
X000709Y000321D01*
X000656Y000352D01*
X000605Y000387D01*
X000556Y000425D01*
X000509Y000466D01*
X000466Y000509D01*
X000425Y000556D01*
X000387Y000605D01*
X000352Y000656D01*
X000321Y000709D01*
X000293Y000764D01*
X000268Y000821D01*
X000247Y000879D01*
X000230Y000938D01*
X000216Y000999D01*
X000207Y001060D01*
X000201Y001121D01*
X000199Y001183D01*
X001143Y001773D02*
X001145Y001823D01*
X001151Y001873D01*
X001161Y001922D01*
X001175Y001970D01*
X001192Y002017D01*
X001213Y002062D01*
X001238Y002106D01*
X001266Y002147D01*
X001298Y002186D01*
X001332Y002223D01*
X001369Y002257D01*
X001409Y002287D01*
X001451Y002314D01*
X001495Y002338D01*
X001541Y002359D01*
X001588Y002375D01*
X001636Y002388D01*
X001686Y002397D01*
X001735Y002402D01*
X001786Y002403D01*
X001836Y002400D01*
X001885Y002393D01*
X001934Y002382D01*
X001982Y002367D01*
X002028Y002349D01*
X002073Y002327D01*
X002116Y002301D01*
X002157Y002272D01*
X002196Y002240D01*
X002232Y002205D01*
X002264Y002167D01*
X002294Y002127D01*
X002321Y002084D01*
X002344Y002040D01*
X002363Y001994D01*
X002379Y001946D01*
X002391Y001897D01*
X002399Y001848D01*
X002403Y001798D01*
X002403Y001748D01*
X002399Y001698D01*
X002391Y001649D01*
X002379Y001600D01*
X002363Y001552D01*
X002344Y001506D01*
X002321Y001462D01*
X002294Y001419D01*
X002264Y001379D01*
X002232Y001341D01*
X002196Y001306D01*
X002157Y001274D01*
X002116Y001245D01*
X002073Y001219D01*
X002028Y001197D01*
X001982Y001179D01*
X001934Y001164D01*
X001885Y001153D01*
X001836Y001146D01*
X001786Y001143D01*
X001735Y001144D01*
X001686Y001149D01*
X001636Y001158D01*
X001588Y001171D01*
X001541Y001187D01*
X001495Y001208D01*
X001451Y001232D01*
X001409Y001259D01*
X001369Y001289D01*
X001332Y001323D01*
X001298Y001360D01*
X001266Y001399D01*
X001238Y001440D01*
X001213Y001484D01*
X001192Y001529D01*
X001175Y001576D01*
X001161Y001624D01*
X001151Y001673D01*
X001145Y001723D01*
X001143Y001773D01*
X001143Y018309D02*
X001145Y018359D01*
X001151Y018409D01*
X001161Y018458D01*
X001175Y018506D01*
X001192Y018553D01*
X001213Y018598D01*
X001238Y018642D01*
X001266Y018683D01*
X001298Y018722D01*
X001332Y018759D01*
X001369Y018793D01*
X001409Y018823D01*
X001451Y018850D01*
X001495Y018874D01*
X001541Y018895D01*
X001588Y018911D01*
X001636Y018924D01*
X001686Y018933D01*
X001735Y018938D01*
X001786Y018939D01*
X001836Y018936D01*
X001885Y018929D01*
X001934Y018918D01*
X001982Y018903D01*
X002028Y018885D01*
X002073Y018863D01*
X002116Y018837D01*
X002157Y018808D01*
X002196Y018776D01*
X002232Y018741D01*
X002264Y018703D01*
X002294Y018663D01*
X002321Y018620D01*
X002344Y018576D01*
X002363Y018530D01*
X002379Y018482D01*
X002391Y018433D01*
X002399Y018384D01*
X002403Y018334D01*
X002403Y018284D01*
X002399Y018234D01*
X002391Y018185D01*
X002379Y018136D01*
X002363Y018088D01*
X002344Y018042D01*
X002321Y017998D01*
X002294Y017955D01*
X002264Y017915D01*
X002232Y017877D01*
X002196Y017842D01*
X002157Y017810D01*
X002116Y017781D01*
X002073Y017755D01*
X002028Y017733D01*
X001982Y017715D01*
X001934Y017700D01*
X001885Y017689D01*
X001836Y017682D01*
X001786Y017679D01*
X001735Y017680D01*
X001686Y017685D01*
X001636Y017694D01*
X001588Y017707D01*
X001541Y017723D01*
X001495Y017744D01*
X001451Y017768D01*
X001409Y017795D01*
X001369Y017825D01*
X001332Y017859D01*
X001298Y017896D01*
X001266Y017935D01*
X001238Y017976D01*
X001213Y018020D01*
X001192Y018065D01*
X001175Y018112D01*
X001161Y018160D01*
X001151Y018209D01*
X001145Y018259D01*
X001143Y018309D01*
X017679Y018309D02*
X017681Y018359D01*
X017687Y018409D01*
X017697Y018458D01*
X017711Y018506D01*
X017728Y018553D01*
X017749Y018598D01*
X017774Y018642D01*
X017802Y018683D01*
X017834Y018722D01*
X017868Y018759D01*
X017905Y018793D01*
X017945Y018823D01*
X017987Y018850D01*
X018031Y018874D01*
X018077Y018895D01*
X018124Y018911D01*
X018172Y018924D01*
X018222Y018933D01*
X018271Y018938D01*
X018322Y018939D01*
X018372Y018936D01*
X018421Y018929D01*
X018470Y018918D01*
X018518Y018903D01*
X018564Y018885D01*
X018609Y018863D01*
X018652Y018837D01*
X018693Y018808D01*
X018732Y018776D01*
X018768Y018741D01*
X018800Y018703D01*
X018830Y018663D01*
X018857Y018620D01*
X018880Y018576D01*
X018899Y018530D01*
X018915Y018482D01*
X018927Y018433D01*
X018935Y018384D01*
X018939Y018334D01*
X018939Y018284D01*
X018935Y018234D01*
X018927Y018185D01*
X018915Y018136D01*
X018899Y018088D01*
X018880Y018042D01*
X018857Y017998D01*
X018830Y017955D01*
X018800Y017915D01*
X018768Y017877D01*
X018732Y017842D01*
X018693Y017810D01*
X018652Y017781D01*
X018609Y017755D01*
X018564Y017733D01*
X018518Y017715D01*
X018470Y017700D01*
X018421Y017689D01*
X018372Y017682D01*
X018322Y017679D01*
X018271Y017680D01*
X018222Y017685D01*
X018172Y017694D01*
X018124Y017707D01*
X018077Y017723D01*
X018031Y017744D01*
X017987Y017768D01*
X017945Y017795D01*
X017905Y017825D01*
X017868Y017859D01*
X017834Y017896D01*
X017802Y017935D01*
X017774Y017976D01*
X017749Y018020D01*
X017728Y018065D01*
X017711Y018112D01*
X017697Y018160D01*
X017687Y018209D01*
X017681Y018259D01*
X017679Y018309D01*
X017679Y001773D02*
X017681Y001823D01*
X017687Y001873D01*
X017697Y001922D01*
X017711Y001970D01*
X017728Y002017D01*
X017749Y002062D01*
X017774Y002106D01*
X017802Y002147D01*
X017834Y002186D01*
X017868Y002223D01*
X017905Y002257D01*
X017945Y002287D01*
X017987Y002314D01*
X018031Y002338D01*
X018077Y002359D01*
X018124Y002375D01*
X018172Y002388D01*
X018222Y002397D01*
X018271Y002402D01*
X018322Y002403D01*
X018372Y002400D01*
X018421Y002393D01*
X018470Y002382D01*
X018518Y002367D01*
X018564Y002349D01*
X018609Y002327D01*
X018652Y002301D01*
X018693Y002272D01*
X018732Y002240D01*
X018768Y002205D01*
X018800Y002167D01*
X018830Y002127D01*
X018857Y002084D01*
X018880Y002040D01*
X018899Y001994D01*
X018915Y001946D01*
X018927Y001897D01*
X018935Y001848D01*
X018939Y001798D01*
X018939Y001748D01*
X018935Y001698D01*
X018927Y001649D01*
X018915Y001600D01*
X018899Y001552D01*
X018880Y001506D01*
X018857Y001462D01*
X018830Y001419D01*
X018800Y001379D01*
X018768Y001341D01*
X018732Y001306D01*
X018693Y001274D01*
X018652Y001245D01*
X018609Y001219D01*
X018564Y001197D01*
X018518Y001179D01*
X018470Y001164D01*
X018421Y001153D01*
X018372Y001146D01*
X018322Y001143D01*
X018271Y001144D01*
X018222Y001149D01*
X018172Y001158D01*
X018124Y001171D01*
X018077Y001187D01*
X018031Y001208D01*
X017987Y001232D01*
X017945Y001259D01*
X017905Y001289D01*
X017868Y001323D01*
X017834Y001360D01*
X017802Y001399D01*
X017774Y001440D01*
X017749Y001484D01*
X017728Y001529D01*
X017711Y001576D01*
X017697Y001624D01*
X017687Y001673D01*
X017681Y001723D01*
X017679Y001773D01*
D11*
X012366Y011123D03*
X012366Y011383D03*
X012368Y011643D03*
X012366Y011903D03*
X012366Y012163D03*
X012366Y012423D03*
X012366Y012683D03*
X012366Y012943D03*
X012366Y013203D03*
X012366Y013463D03*
X010066Y013463D03*
X010066Y013203D03*
X010066Y012943D03*
X010066Y012683D03*
X010066Y012423D03*
X010066Y012163D03*
X010066Y011903D03*
X010063Y011643D03*
X010066Y011383D03*
X010066Y011123D03*
D12*
X010472Y009496D03*
X010972Y009496D03*
X011472Y009496D03*
X011972Y009496D03*
X011972Y007436D03*
X011472Y007436D03*
X010972Y007436D03*
X010472Y007436D03*
D13*
X014135Y012834D03*
X014135Y013334D03*
X014135Y013834D03*
X014135Y014334D03*
X016183Y014334D03*
X016183Y013834D03*
X016183Y013334D03*
X016183Y012834D03*
D14*
X018309Y012084D03*
X018309Y005104D03*
X001773Y007998D03*
X001773Y015297D03*
D15*
X001773Y014297D03*
X001773Y013297D03*
X001773Y012297D03*
X001773Y011297D03*
X001773Y010297D03*
X001773Y006998D03*
X001773Y005998D03*
X001773Y004998D03*
X018309Y006104D03*
X018309Y007104D03*
X018309Y013084D03*
X018309Y014084D03*
X018309Y015084D03*
D16*
X016478Y015159D03*
X015809Y015159D03*
X014509Y015159D03*
X013840Y015159D03*
X012344Y014372D03*
X011675Y014372D03*
X011163Y014372D03*
X010494Y014372D03*
X010494Y015159D03*
X011163Y015159D03*
X012797Y017974D03*
X012797Y018643D03*
X011222Y018368D03*
X011222Y019037D03*
X008072Y018643D03*
X008072Y017974D03*
X008013Y016340D03*
X007344Y016340D03*
X007226Y015553D03*
X006557Y015553D03*
X004923Y012344D03*
X004923Y011675D03*
X004135Y011675D03*
X004135Y012344D03*
X005317Y010769D03*
X005317Y010100D03*
X006163Y008663D03*
X006832Y008663D03*
X006301Y004273D03*
X006301Y003604D03*
X003939Y003604D03*
X003939Y004273D03*
X014765Y005769D03*
X014765Y006439D03*
D17*
X015553Y006439D03*
X015553Y005769D03*
X015612Y004923D03*
X016281Y004923D03*
X009844Y008131D03*
X009844Y008801D03*
X006104Y006832D03*
X006104Y006163D03*
X005513Y004273D03*
X005513Y003604D03*
X005710Y011675D03*
X005710Y012344D03*
X005317Y013250D03*
X005317Y013919D03*
X005317Y014824D03*
X005317Y015494D03*
X007285Y017974D03*
X007285Y018643D03*
D18*
X004569Y010809D03*
X004569Y010061D03*
X003702Y010435D03*
D19*
X003742Y013250D03*
X003742Y013919D03*
X004529Y013919D03*
X004529Y013250D03*
X004529Y014824D03*
X004529Y015494D03*
X003742Y015494D03*
X003742Y014824D03*
X006891Y006832D03*
X006891Y006163D03*
X004726Y004273D03*
X004726Y003604D03*
X016340Y005769D03*
X016340Y006439D03*
D20*
X007679Y009667D03*
X007679Y010041D03*
X007679Y010415D03*
X006773Y010415D03*
X006773Y010041D03*
X006773Y009667D03*
X006773Y011439D03*
X006773Y011813D03*
X006773Y012187D03*
X007679Y012187D03*
X007679Y011813D03*
X007679Y011439D03*
X007285Y013998D03*
X007285Y014372D03*
X007285Y014746D03*
X006380Y014746D03*
X006380Y014372D03*
X006380Y013998D03*
D21*
X006317Y017559D03*
X006317Y019059D03*
X004317Y019059D03*
X004317Y017559D03*
X013765Y017559D03*
X013765Y019059D03*
X015765Y019059D03*
X015765Y017559D03*
D22*
X008072Y006931D03*
X007698Y006065D03*
X008446Y006065D03*
D23*
X008407Y005317D03*
X007738Y005317D03*
X007738Y007876D03*
X008407Y007876D03*
X008407Y008663D03*
X007738Y008663D03*
X006832Y007876D03*
X006163Y007876D03*
D24*
X005317Y007521D03*
X005002Y007521D03*
X004687Y007521D03*
X004372Y007521D03*
X004057Y007521D03*
X003742Y007521D03*
X003742Y005474D03*
X004057Y005474D03*
X004372Y005474D03*
X004687Y005474D03*
X005002Y005474D03*
X005317Y005474D03*
D25*
X004529Y006498D03*
D26*
X009490Y018348D03*
X009490Y019057D03*
X010592Y019057D03*
X010592Y018348D03*
D27*
X018309Y018309D03*
X018309Y001773D03*
X001773Y001773D03*
X001773Y018309D03*
M02*
