%
M48
M72
T01C0.0236
T02C0.0315
T03C0.1260
%
T01
X5120Y11222
X6104Y9254
X5907Y3348
X3545Y4923
X8860Y19293
X7285Y5513
X15159Y6498
X11419Y14175
X11025Y11813
X13978Y12403
X14372Y15750
X9844Y7088
X4726Y11222
X6301Y15750
X5317Y14372
X11616Y8663
X10828Y10238
X13387Y6104
X13387Y6498
X13387Y6891
X8269Y16931
X9057Y17128
X13387Y15159
X13387Y16340
X13387Y15553
X10631Y8269
X11813Y12797
X8269Y12403
X9450Y10631
X9057Y13387
X6104Y11025
X9254Y5513
X6694Y11025
X7876Y11025
X10828Y11025
X5120Y4529
X6104Y10238
X3939Y3348
X11616Y13387
T02
X18309Y5104
X18309Y6104
X18309Y7104
X1773Y7998
X1773Y6998
X1773Y5998
X1773Y4998
X1773Y15297
X1773Y14297
X1773Y13297
X1773Y12297
X1773Y11297
X1773Y10297
X18309Y12084
X18309Y13084
X18309Y14084
X18309Y15084
T03
X1773Y1773
X18309Y1773
X1773Y18309
X18309Y18309
M30
