G75*
%MOIN*%
%OFA0B0*%
%FSLAX24Y24*%
%IPPOS*%
%LPD*%
%AMOC8*
5,1,8,0,0,1.08239X$1,22.5*
%
%ADD10C,0.0000*%
%ADD11R,0.0515X0.0515*%
%ADD12C,0.0515*%
%ADD13R,0.0250X0.0500*%
%ADD14C,0.0160*%
%ADD15C,0.0400*%
%ADD16OC8,0.0740*%
%ADD17C,0.0197*%
%ADD18C,0.0356*%
%ADD19C,0.0315*%
%ADD20C,0.0157*%
%ADD21C,0.0060*%
%ADD22C,0.0240*%
%ADD23C,0.0320*%
%ADD24C,0.0500*%
D10*
X001183Y001347D02*
X018899Y001347D01*
X018961Y001349D01*
X019022Y001355D01*
X019083Y001364D01*
X019144Y001378D01*
X019203Y001395D01*
X019261Y001416D01*
X019318Y001441D01*
X019373Y001469D01*
X019426Y001500D01*
X019477Y001535D01*
X019526Y001573D01*
X019573Y001614D01*
X019616Y001657D01*
X019657Y001704D01*
X019695Y001753D01*
X019730Y001804D01*
X019761Y001857D01*
X019789Y001912D01*
X019814Y001969D01*
X019835Y002027D01*
X019852Y002086D01*
X019866Y002147D01*
X019875Y002208D01*
X019881Y002269D01*
X019883Y002331D01*
X019883Y020048D01*
X019881Y020110D01*
X019875Y020171D01*
X019866Y020232D01*
X019852Y020293D01*
X019835Y020352D01*
X019814Y020410D01*
X019789Y020467D01*
X019761Y020522D01*
X019730Y020575D01*
X019695Y020626D01*
X019657Y020675D01*
X019616Y020722D01*
X019573Y020765D01*
X019526Y020806D01*
X019477Y020844D01*
X019426Y020879D01*
X019373Y020910D01*
X019318Y020938D01*
X019261Y020963D01*
X019203Y020984D01*
X019144Y021001D01*
X019083Y021015D01*
X019022Y021024D01*
X018961Y021030D01*
X018899Y021032D01*
X001183Y021032D01*
X001121Y021030D01*
X001060Y021024D01*
X000999Y021015D01*
X000938Y021001D01*
X000879Y020984D01*
X000821Y020963D01*
X000764Y020938D01*
X000709Y020910D01*
X000656Y020879D01*
X000605Y020844D01*
X000556Y020806D01*
X000509Y020765D01*
X000466Y020722D01*
X000425Y020675D01*
X000387Y020626D01*
X000352Y020575D01*
X000321Y020522D01*
X000293Y020467D01*
X000268Y020410D01*
X000247Y020352D01*
X000230Y020293D01*
X000216Y020232D01*
X000207Y020171D01*
X000201Y020110D01*
X000199Y020048D01*
X000198Y020048D02*
X000198Y002331D01*
X000199Y002331D02*
X000201Y002269D01*
X000207Y002208D01*
X000216Y002147D01*
X000230Y002086D01*
X000247Y002027D01*
X000268Y001969D01*
X000293Y001912D01*
X000321Y001857D01*
X000352Y001804D01*
X000387Y001753D01*
X000425Y001704D01*
X000466Y001657D01*
X000509Y001614D01*
X000556Y001573D01*
X000605Y001535D01*
X000656Y001500D01*
X000709Y001469D01*
X000764Y001441D01*
X000821Y001416D01*
X000879Y001395D01*
X000938Y001378D01*
X000999Y001364D01*
X001060Y001355D01*
X001121Y001349D01*
X001183Y001347D01*
X001143Y002922D02*
X001145Y002972D01*
X001151Y003022D01*
X001161Y003071D01*
X001175Y003119D01*
X001192Y003166D01*
X001213Y003211D01*
X001238Y003255D01*
X001266Y003296D01*
X001298Y003335D01*
X001332Y003372D01*
X001369Y003406D01*
X001409Y003436D01*
X001451Y003463D01*
X001495Y003487D01*
X001541Y003508D01*
X001588Y003524D01*
X001636Y003537D01*
X001686Y003546D01*
X001735Y003551D01*
X001786Y003552D01*
X001836Y003549D01*
X001885Y003542D01*
X001934Y003531D01*
X001982Y003516D01*
X002028Y003498D01*
X002073Y003476D01*
X002116Y003450D01*
X002157Y003421D01*
X002196Y003389D01*
X002232Y003354D01*
X002264Y003316D01*
X002294Y003276D01*
X002321Y003233D01*
X002344Y003189D01*
X002363Y003143D01*
X002379Y003095D01*
X002391Y003046D01*
X002399Y002997D01*
X002403Y002947D01*
X002403Y002897D01*
X002399Y002847D01*
X002391Y002798D01*
X002379Y002749D01*
X002363Y002701D01*
X002344Y002655D01*
X002321Y002611D01*
X002294Y002568D01*
X002264Y002528D01*
X002232Y002490D01*
X002196Y002455D01*
X002157Y002423D01*
X002116Y002394D01*
X002073Y002368D01*
X002028Y002346D01*
X001982Y002328D01*
X001934Y002313D01*
X001885Y002302D01*
X001836Y002295D01*
X001786Y002292D01*
X001735Y002293D01*
X001686Y002298D01*
X001636Y002307D01*
X001588Y002320D01*
X001541Y002336D01*
X001495Y002357D01*
X001451Y002381D01*
X001409Y002408D01*
X001369Y002438D01*
X001332Y002472D01*
X001298Y002509D01*
X001266Y002548D01*
X001238Y002589D01*
X001213Y002633D01*
X001192Y002678D01*
X001175Y002725D01*
X001161Y002773D01*
X001151Y002822D01*
X001145Y002872D01*
X001143Y002922D01*
X013457Y003001D02*
X013459Y003026D01*
X013465Y003051D01*
X013474Y003075D01*
X013487Y003097D01*
X013504Y003117D01*
X013523Y003134D01*
X013544Y003148D01*
X013568Y003158D01*
X013592Y003165D01*
X013618Y003168D01*
X013643Y003167D01*
X013668Y003162D01*
X013692Y003153D01*
X013715Y003141D01*
X013735Y003126D01*
X013753Y003107D01*
X013768Y003086D01*
X013779Y003063D01*
X013787Y003039D01*
X013791Y003014D01*
X013791Y002988D01*
X013787Y002963D01*
X013779Y002939D01*
X013768Y002916D01*
X013753Y002895D01*
X013735Y002876D01*
X013715Y002861D01*
X013692Y002849D01*
X013668Y002840D01*
X013643Y002835D01*
X013618Y002834D01*
X013592Y002837D01*
X013568Y002844D01*
X013544Y002854D01*
X013523Y002868D01*
X013504Y002885D01*
X013487Y002905D01*
X013474Y002927D01*
X013465Y002951D01*
X013459Y002976D01*
X013457Y003001D01*
X014953Y003001D02*
X014955Y003026D01*
X014961Y003051D01*
X014970Y003075D01*
X014983Y003097D01*
X015000Y003117D01*
X015019Y003134D01*
X015040Y003148D01*
X015064Y003158D01*
X015088Y003165D01*
X015114Y003168D01*
X015139Y003167D01*
X015164Y003162D01*
X015188Y003153D01*
X015211Y003141D01*
X015231Y003126D01*
X015249Y003107D01*
X015264Y003086D01*
X015275Y003063D01*
X015283Y003039D01*
X015287Y003014D01*
X015287Y002988D01*
X015283Y002963D01*
X015275Y002939D01*
X015264Y002916D01*
X015249Y002895D01*
X015231Y002876D01*
X015211Y002861D01*
X015188Y002849D01*
X015164Y002840D01*
X015139Y002835D01*
X015114Y002834D01*
X015088Y002837D01*
X015064Y002844D01*
X015040Y002854D01*
X015019Y002868D01*
X015000Y002885D01*
X014983Y002905D01*
X014970Y002927D01*
X014961Y002951D01*
X014955Y002976D01*
X014953Y003001D01*
X017679Y002922D02*
X017681Y002972D01*
X017687Y003022D01*
X017697Y003071D01*
X017711Y003119D01*
X017728Y003166D01*
X017749Y003211D01*
X017774Y003255D01*
X017802Y003296D01*
X017834Y003335D01*
X017868Y003372D01*
X017905Y003406D01*
X017945Y003436D01*
X017987Y003463D01*
X018031Y003487D01*
X018077Y003508D01*
X018124Y003524D01*
X018172Y003537D01*
X018222Y003546D01*
X018271Y003551D01*
X018322Y003552D01*
X018372Y003549D01*
X018421Y003542D01*
X018470Y003531D01*
X018518Y003516D01*
X018564Y003498D01*
X018609Y003476D01*
X018652Y003450D01*
X018693Y003421D01*
X018732Y003389D01*
X018768Y003354D01*
X018800Y003316D01*
X018830Y003276D01*
X018857Y003233D01*
X018880Y003189D01*
X018899Y003143D01*
X018915Y003095D01*
X018927Y003046D01*
X018935Y002997D01*
X018939Y002947D01*
X018939Y002897D01*
X018935Y002847D01*
X018927Y002798D01*
X018915Y002749D01*
X018899Y002701D01*
X018880Y002655D01*
X018857Y002611D01*
X018830Y002568D01*
X018800Y002528D01*
X018768Y002490D01*
X018732Y002455D01*
X018693Y002423D01*
X018652Y002394D01*
X018609Y002368D01*
X018564Y002346D01*
X018518Y002328D01*
X018470Y002313D01*
X018421Y002302D01*
X018372Y002295D01*
X018322Y002292D01*
X018271Y002293D01*
X018222Y002298D01*
X018172Y002307D01*
X018124Y002320D01*
X018077Y002336D01*
X018031Y002357D01*
X017987Y002381D01*
X017945Y002408D01*
X017905Y002438D01*
X017868Y002472D01*
X017834Y002509D01*
X017802Y002548D01*
X017774Y002589D01*
X017749Y002633D01*
X017728Y002678D01*
X017711Y002725D01*
X017697Y002773D01*
X017687Y002822D01*
X017681Y002872D01*
X017679Y002922D01*
X017679Y019457D02*
X017681Y019507D01*
X017687Y019557D01*
X017697Y019606D01*
X017711Y019654D01*
X017728Y019701D01*
X017749Y019746D01*
X017774Y019790D01*
X017802Y019831D01*
X017834Y019870D01*
X017868Y019907D01*
X017905Y019941D01*
X017945Y019971D01*
X017987Y019998D01*
X018031Y020022D01*
X018077Y020043D01*
X018124Y020059D01*
X018172Y020072D01*
X018222Y020081D01*
X018271Y020086D01*
X018322Y020087D01*
X018372Y020084D01*
X018421Y020077D01*
X018470Y020066D01*
X018518Y020051D01*
X018564Y020033D01*
X018609Y020011D01*
X018652Y019985D01*
X018693Y019956D01*
X018732Y019924D01*
X018768Y019889D01*
X018800Y019851D01*
X018830Y019811D01*
X018857Y019768D01*
X018880Y019724D01*
X018899Y019678D01*
X018915Y019630D01*
X018927Y019581D01*
X018935Y019532D01*
X018939Y019482D01*
X018939Y019432D01*
X018935Y019382D01*
X018927Y019333D01*
X018915Y019284D01*
X018899Y019236D01*
X018880Y019190D01*
X018857Y019146D01*
X018830Y019103D01*
X018800Y019063D01*
X018768Y019025D01*
X018732Y018990D01*
X018693Y018958D01*
X018652Y018929D01*
X018609Y018903D01*
X018564Y018881D01*
X018518Y018863D01*
X018470Y018848D01*
X018421Y018837D01*
X018372Y018830D01*
X018322Y018827D01*
X018271Y018828D01*
X018222Y018833D01*
X018172Y018842D01*
X018124Y018855D01*
X018077Y018871D01*
X018031Y018892D01*
X017987Y018916D01*
X017945Y018943D01*
X017905Y018973D01*
X017868Y019007D01*
X017834Y019044D01*
X017802Y019083D01*
X017774Y019124D01*
X017749Y019168D01*
X017728Y019213D01*
X017711Y019260D01*
X017697Y019308D01*
X017687Y019357D01*
X017681Y019407D01*
X017679Y019457D01*
X001143Y019457D02*
X001145Y019507D01*
X001151Y019557D01*
X001161Y019606D01*
X001175Y019654D01*
X001192Y019701D01*
X001213Y019746D01*
X001238Y019790D01*
X001266Y019831D01*
X001298Y019870D01*
X001332Y019907D01*
X001369Y019941D01*
X001409Y019971D01*
X001451Y019998D01*
X001495Y020022D01*
X001541Y020043D01*
X001588Y020059D01*
X001636Y020072D01*
X001686Y020081D01*
X001735Y020086D01*
X001786Y020087D01*
X001836Y020084D01*
X001885Y020077D01*
X001934Y020066D01*
X001982Y020051D01*
X002028Y020033D01*
X002073Y020011D01*
X002116Y019985D01*
X002157Y019956D01*
X002196Y019924D01*
X002232Y019889D01*
X002264Y019851D01*
X002294Y019811D01*
X002321Y019768D01*
X002344Y019724D01*
X002363Y019678D01*
X002379Y019630D01*
X002391Y019581D01*
X002399Y019532D01*
X002403Y019482D01*
X002403Y019432D01*
X002399Y019382D01*
X002391Y019333D01*
X002379Y019284D01*
X002363Y019236D01*
X002344Y019190D01*
X002321Y019146D01*
X002294Y019103D01*
X002264Y019063D01*
X002232Y019025D01*
X002196Y018990D01*
X002157Y018958D01*
X002116Y018929D01*
X002073Y018903D01*
X002028Y018881D01*
X001982Y018863D01*
X001934Y018848D01*
X001885Y018837D01*
X001836Y018830D01*
X001786Y018827D01*
X001735Y018828D01*
X001686Y018833D01*
X001636Y018842D01*
X001588Y018855D01*
X001541Y018871D01*
X001495Y018892D01*
X001451Y018916D01*
X001409Y018943D01*
X001369Y018973D01*
X001332Y019007D01*
X001298Y019044D01*
X001266Y019083D01*
X001238Y019124D01*
X001213Y019168D01*
X001192Y019213D01*
X001175Y019260D01*
X001161Y019308D01*
X001151Y019357D01*
X001145Y019407D01*
X001143Y019457D01*
D11*
X001773Y016446D03*
X001773Y009146D03*
X018309Y013233D03*
D12*
X018309Y014233D03*
X018309Y015233D03*
X018309Y016233D03*
X001773Y015446D03*
X001773Y014446D03*
X001773Y013446D03*
X001773Y012446D03*
X001773Y011446D03*
X001773Y008146D03*
X001773Y007146D03*
X001773Y006146D03*
D13*
X009397Y014143D03*
X009897Y014143D03*
D14*
X009397Y014143D01*
D15*
X010903Y012371D03*
X011403Y012371D03*
X011903Y012371D03*
X012403Y012371D03*
D16*
X011978Y019351D03*
X012978Y019351D03*
X013978Y019351D03*
X014978Y019351D03*
X015978Y019351D03*
X015978Y020351D03*
X014978Y020351D03*
X013978Y020351D03*
X012978Y020351D03*
X011978Y020351D03*
D17*
X011976Y020350D02*
X011410Y020350D01*
X011410Y020170D01*
X011356Y020170D01*
X011239Y020121D01*
X011149Y020032D01*
X011100Y019915D01*
X011100Y019788D01*
X011149Y019671D01*
X011201Y019619D01*
X010780Y019619D01*
X010345Y020054D01*
X010244Y020155D01*
X010112Y020210D01*
X008592Y020210D01*
X008460Y020155D01*
X007869Y019564D01*
X007769Y019464D01*
X007714Y019332D01*
X007714Y018986D01*
X007696Y018942D01*
X007696Y018792D01*
X007714Y018748D01*
X007714Y018592D01*
X007696Y018548D01*
X007696Y018398D01*
X007753Y018260D01*
X007859Y018154D01*
X007998Y018097D01*
X008147Y018097D01*
X008286Y018154D01*
X008392Y018260D01*
X008449Y018398D01*
X008449Y018548D01*
X008431Y018592D01*
X008431Y018748D01*
X008449Y018792D01*
X008449Y018942D01*
X008431Y018986D01*
X008431Y019112D01*
X008581Y019262D01*
X008581Y019237D01*
X008629Y019120D01*
X008719Y019030D01*
X008828Y018985D01*
X008828Y017552D01*
X008962Y017418D01*
X010537Y015843D01*
X010606Y015843D01*
X010648Y015802D01*
X010765Y015753D01*
X010892Y015753D01*
X011009Y015802D01*
X011098Y015891D01*
X011147Y016008D01*
X011147Y016135D01*
X011098Y016252D01*
X011009Y016342D01*
X010892Y016390D01*
X010765Y016390D01*
X010674Y016352D01*
X010072Y016954D01*
X010143Y016983D01*
X010232Y017072D01*
X010281Y017189D01*
X010281Y017316D01*
X010232Y017433D01*
X010143Y017523D01*
X010026Y017571D01*
X009899Y017571D01*
X009782Y017523D01*
X009780Y017521D01*
X009702Y017521D01*
X009443Y017780D01*
X009443Y019078D01*
X009484Y019120D01*
X009533Y019237D01*
X009533Y019363D01*
X009484Y019480D01*
X009472Y019493D01*
X009892Y019493D01*
X010428Y018957D01*
X010560Y018902D01*
X011623Y018902D01*
X011743Y018783D01*
X011980Y018783D01*
X012791Y017973D01*
X012922Y017918D01*
X014013Y017918D01*
X014013Y017637D01*
X013994Y017618D01*
X013972Y017669D01*
X013883Y017759D01*
X013766Y017807D01*
X013639Y017807D01*
X013545Y017768D01*
X013451Y017807D01*
X013324Y017807D01*
X013207Y017759D01*
X013117Y017669D01*
X013069Y017552D01*
X013069Y017494D01*
X012844Y017269D01*
X012844Y016057D01*
X012802Y016016D01*
X012754Y015899D01*
X012754Y015772D01*
X012796Y015670D01*
X011444Y015670D01*
X011402Y015712D01*
X011285Y015760D01*
X011159Y015760D01*
X011042Y015712D01*
X010952Y015622D01*
X010904Y015505D01*
X010904Y015440D01*
X010892Y015445D01*
X010765Y015445D01*
X010745Y015437D01*
X010753Y015457D01*
X010753Y015584D01*
X010705Y015701D01*
X010615Y015790D01*
X010498Y015839D01*
X010371Y015839D01*
X010272Y015798D01*
X010140Y015798D01*
X010163Y015851D01*
X010163Y015978D01*
X010114Y016095D01*
X010024Y016184D01*
X009907Y016233D01*
X009781Y016233D01*
X009664Y016184D01*
X009622Y016143D01*
X009248Y016143D01*
X007650Y017741D01*
X007541Y017786D01*
X002399Y017786D01*
X002520Y017822D01*
X002520Y017822D01*
X002951Y018098D01*
X002951Y018098D01*
X002951Y018098D01*
X003286Y018485D01*
X003286Y018485D01*
X003499Y018951D01*
X003572Y019457D01*
X003499Y019964D01*
X003286Y020430D01*
X002951Y020817D01*
X002924Y020834D01*
X011657Y020834D01*
X011410Y020587D01*
X011410Y020353D01*
X011976Y020353D01*
X011976Y020350D01*
X011410Y020296D02*
X003347Y020296D01*
X003286Y020430D02*
X003286Y020430D01*
X003233Y020492D02*
X011410Y020492D01*
X011510Y020687D02*
X003063Y020687D01*
X002951Y020817D02*
X002951Y020817D01*
X003436Y020101D02*
X008406Y020101D01*
X008210Y019906D02*
X003507Y019906D01*
X003499Y019964D02*
X003499Y019964D01*
X003535Y019710D02*
X008015Y019710D01*
X007820Y019515D02*
X003563Y019515D01*
X003552Y019320D02*
X007714Y019320D01*
X007714Y019124D02*
X003524Y019124D01*
X003499Y018951D02*
X003499Y018951D01*
X003489Y018929D02*
X007696Y018929D01*
X007714Y018733D02*
X003400Y018733D01*
X003310Y018538D02*
X007696Y018538D01*
X007719Y018343D02*
X003163Y018343D01*
X002993Y018147D02*
X007875Y018147D01*
X007611Y017757D02*
X008828Y017757D01*
X008828Y017952D02*
X002723Y017952D01*
X002561Y017804D02*
X001104Y017804D01*
X001124Y017786D02*
X001015Y017741D01*
X000931Y017657D01*
X000734Y017460D01*
X000689Y017351D01*
X000689Y013099D01*
X000734Y012990D01*
X000818Y012907D01*
X001015Y012710D01*
X001124Y012665D01*
X001370Y012665D01*
X001317Y012536D01*
X001317Y012355D01*
X001387Y012187D01*
X001515Y012059D01*
X001683Y011990D01*
X001864Y011990D01*
X002031Y012059D01*
X002160Y012187D01*
X002229Y012355D01*
X002229Y012536D01*
X002176Y012665D01*
X002423Y012665D01*
X002532Y012710D01*
X003077Y013255D01*
X006375Y013255D01*
X006717Y012913D01*
X006099Y012296D01*
X006041Y012296D01*
X005924Y012247D01*
X005834Y012158D01*
X005786Y012041D01*
X005786Y011914D01*
X005834Y011797D01*
X005924Y011707D01*
X006041Y011659D01*
X006167Y011659D01*
X006269Y011701D01*
X006269Y011701D01*
X006269Y007151D01*
X005419Y006300D01*
X004238Y006300D01*
X003343Y005406D01*
X003285Y005406D01*
X003168Y005357D01*
X003078Y005268D01*
X003030Y005151D01*
X003030Y005024D01*
X003078Y004907D01*
X003168Y004817D01*
X003285Y004769D01*
X003411Y004769D01*
X003528Y004817D01*
X003618Y004907D01*
X003666Y005024D01*
X003666Y005083D01*
X004427Y005843D01*
X005608Y005843D01*
X005742Y005977D01*
X006726Y006961D01*
X006726Y011883D01*
X007311Y012468D01*
X008821Y012468D01*
X008843Y012445D01*
X008982Y012388D01*
X009132Y012388D01*
X009270Y012445D01*
X009376Y012551D01*
X009433Y012690D01*
X009433Y012839D01*
X009410Y012895D01*
X009702Y013187D01*
X009747Y013296D01*
X009747Y013694D01*
X009897Y013694D01*
X009897Y013864D01*
X009897Y013864D01*
X009897Y013694D01*
X010048Y013694D01*
X010099Y013708D01*
X010144Y013734D01*
X010181Y013771D01*
X010207Y013816D01*
X010221Y013866D01*
X010221Y014143D01*
X010221Y014419D01*
X010207Y014469D01*
X010181Y014514D01*
X010144Y014551D01*
X010099Y014577D01*
X010048Y014591D01*
X009897Y014591D01*
X009747Y014591D01*
X009747Y015243D01*
X010272Y015243D01*
X010371Y015202D01*
X010498Y015202D01*
X010518Y015210D01*
X010510Y015190D01*
X010510Y015063D01*
X010558Y014946D01*
X010648Y014857D01*
X010765Y014808D01*
X010892Y014808D01*
X011009Y014857D01*
X011050Y014898D01*
X013166Y014898D01*
X013207Y014857D01*
X013324Y014808D01*
X013451Y014808D01*
X013530Y014841D01*
X013530Y012648D01*
X012689Y012648D01*
X012629Y012709D01*
X012482Y012769D01*
X012324Y012769D01*
X012177Y012709D01*
X012153Y012684D01*
X012129Y012709D01*
X011982Y012769D01*
X011824Y012769D01*
X011677Y012709D01*
X011652Y012684D01*
X011592Y012724D01*
X011519Y012754D01*
X011442Y012769D01*
X011403Y012769D01*
X011364Y012769D01*
X011287Y012754D01*
X011214Y012724D01*
X011154Y012684D01*
X011129Y012709D01*
X011022Y012753D01*
X011529Y013261D01*
X011529Y013724D01*
X011571Y013765D01*
X011619Y013882D01*
X011619Y014009D01*
X011571Y014126D01*
X011481Y014216D01*
X011364Y014264D01*
X011237Y014264D01*
X011143Y014225D01*
X011049Y014264D01*
X010922Y014264D01*
X010805Y014216D01*
X010716Y014126D01*
X010667Y014009D01*
X010667Y013882D01*
X010716Y013765D01*
X010757Y013724D01*
X010757Y013332D01*
X010340Y012914D01*
X010206Y012780D01*
X010206Y012040D01*
X012214Y010032D01*
X012214Y005623D01*
X012757Y005080D01*
X012763Y005065D01*
X012853Y004975D01*
X012970Y004926D01*
X013096Y004926D01*
X013213Y004975D01*
X013303Y005065D01*
X013351Y005182D01*
X013351Y005308D01*
X013304Y005422D01*
X013351Y005536D01*
X013351Y005663D01*
X013303Y005780D01*
X013213Y005869D01*
X013096Y005918D01*
X012970Y005918D01*
X012853Y005869D01*
X012832Y005848D01*
X012828Y005851D01*
X012828Y010261D01*
X012695Y010395D01*
X011824Y011265D01*
X011876Y011265D01*
X011993Y011314D01*
X012034Y011355D01*
X012969Y011355D01*
X013010Y011314D01*
X013127Y011265D01*
X013254Y011265D01*
X013371Y011314D01*
X013460Y011403D01*
X013509Y011520D01*
X013509Y011647D01*
X013460Y011764D01*
X013371Y011853D01*
X013254Y011902D01*
X013127Y011902D01*
X013010Y011853D01*
X012969Y011812D01*
X012034Y011812D01*
X011993Y011853D01*
X011876Y011902D01*
X011749Y011902D01*
X011632Y011853D01*
X011543Y011764D01*
X011494Y011647D01*
X011494Y011595D01*
X011077Y012012D01*
X011129Y012033D01*
X011154Y012058D01*
X011214Y012018D01*
X011287Y011988D01*
X011364Y011972D01*
X011403Y011972D01*
X011403Y012371D01*
X011403Y012371D01*
X011302Y012371D01*
X011302Y012371D01*
X011403Y012371D01*
X011403Y012769D01*
X011403Y012371D01*
X011403Y012371D01*
X011403Y012371D01*
X011505Y012371D01*
X011505Y012371D01*
X011403Y012371D01*
X011403Y012371D01*
X011403Y011972D01*
X011442Y011972D01*
X011519Y011988D01*
X011592Y012018D01*
X011652Y012058D01*
X011677Y012033D01*
X011824Y011972D01*
X011982Y011972D01*
X012129Y012033D01*
X012153Y012057D01*
X012177Y012033D01*
X012324Y011972D01*
X012482Y011972D01*
X012629Y012033D01*
X012689Y012094D01*
X013530Y012094D01*
X013530Y007164D01*
X013598Y006999D01*
X013724Y006873D01*
X013889Y006804D01*
X014067Y006804D01*
X014232Y006873D01*
X014358Y006999D01*
X014426Y007164D01*
X014426Y017037D01*
X014575Y017185D01*
X014676Y017286D01*
X014730Y017418D01*
X014730Y018348D01*
X014676Y018479D01*
X014575Y018580D01*
X014443Y018635D01*
X013142Y018635D01*
X012994Y018783D01*
X013213Y018783D01*
X013478Y019047D01*
X013743Y018783D01*
X014213Y018783D01*
X014478Y019047D01*
X014743Y018783D01*
X015213Y018783D01*
X015478Y019047D01*
X015743Y018783D01*
X016213Y018783D01*
X016546Y019116D01*
X016546Y019206D01*
X016583Y018951D01*
X016583Y018951D01*
X016796Y018485D01*
X017131Y018098D01*
X017562Y017822D01*
X018053Y017677D01*
X018565Y017677D01*
X019056Y017822D01*
X019486Y018098D01*
X019486Y018098D01*
X019486Y018098D01*
X019685Y018328D01*
X019685Y017392D01*
X015691Y017392D01*
X015581Y017347D01*
X015498Y017263D01*
X014907Y016673D01*
X014862Y016564D01*
X014862Y012902D01*
X014907Y012793D01*
X014991Y012710D01*
X015498Y012203D01*
X015498Y012203D01*
X015581Y012119D01*
X015691Y012074D01*
X019685Y012074D01*
X019685Y004052D01*
X019486Y004281D01*
X019056Y004558D01*
X018565Y004702D01*
X018053Y004702D01*
X017562Y004558D01*
X017131Y004281D01*
X016796Y003894D01*
X016583Y003429D01*
X016583Y003429D01*
X016510Y002922D01*
X016583Y002415D01*
X016796Y001950D01*
X017131Y001563D01*
X017158Y001546D01*
X002924Y001546D01*
X002951Y001563D01*
X003286Y001950D01*
X003499Y002415D01*
X003499Y002415D01*
X003572Y002922D01*
X003499Y003429D01*
X003286Y003894D01*
X002951Y004281D01*
X002520Y004558D01*
X002029Y004702D01*
X001517Y004702D01*
X001026Y004558D01*
X000596Y004281D01*
X000596Y004281D01*
X000397Y004052D01*
X000397Y018328D01*
X000596Y018098D01*
X001026Y017822D01*
X001026Y017822D01*
X001148Y017786D01*
X001124Y017786D01*
X001053Y017757D02*
X000397Y017757D01*
X000397Y017952D02*
X000823Y017952D01*
X000596Y018098D02*
X000596Y018098D01*
X000553Y018147D02*
X000397Y018147D01*
X000397Y017561D02*
X000835Y017561D01*
X000695Y017366D02*
X000397Y017366D01*
X000397Y017171D02*
X000689Y017171D01*
X000689Y016975D02*
X000397Y016975D01*
X000397Y016780D02*
X000689Y016780D01*
X000689Y016585D02*
X000397Y016585D01*
X000397Y016389D02*
X000689Y016389D01*
X000689Y016194D02*
X000397Y016194D01*
X000397Y015999D02*
X000689Y015999D01*
X000689Y015803D02*
X000397Y015803D01*
X000397Y015608D02*
X000689Y015608D01*
X000689Y015412D02*
X000397Y015412D01*
X000397Y015217D02*
X000689Y015217D01*
X000689Y015022D02*
X000397Y015022D01*
X000397Y014826D02*
X000689Y014826D01*
X000689Y014631D02*
X000397Y014631D01*
X000397Y014436D02*
X000689Y014436D01*
X000689Y014240D02*
X000397Y014240D01*
X000397Y014045D02*
X000689Y014045D01*
X000689Y013850D02*
X000397Y013850D01*
X000397Y013654D02*
X000689Y013654D01*
X000689Y013459D02*
X000397Y013459D01*
X000397Y013264D02*
X000689Y013264D01*
X000702Y013068D02*
X000397Y013068D01*
X000397Y012873D02*
X000851Y012873D01*
X001076Y013068D02*
X001517Y013068D01*
X001534Y013056D02*
X001598Y013023D01*
X001666Y013001D01*
X001737Y012990D01*
X001773Y012990D01*
X001773Y013446D01*
X001773Y013902D01*
X001737Y013902D01*
X001666Y013890D01*
X001598Y013868D01*
X001534Y013836D01*
X001476Y013793D01*
X001425Y013743D01*
X001383Y013685D01*
X001351Y013621D01*
X001329Y013552D01*
X001317Y013482D01*
X001317Y013446D01*
X001773Y013446D01*
X001773Y013446D01*
X001773Y013446D01*
X001773Y013902D01*
X001809Y013902D01*
X001880Y013890D01*
X001948Y013868D01*
X002012Y013836D01*
X002070Y013793D01*
X002121Y013743D01*
X002163Y013685D01*
X002196Y013621D01*
X002218Y013552D01*
X002229Y013482D01*
X002229Y013446D01*
X001773Y013446D01*
X001317Y013446D01*
X001317Y013410D01*
X001329Y013339D01*
X001351Y013271D01*
X001383Y013207D01*
X001425Y013149D01*
X001476Y013098D01*
X001534Y013056D01*
X001773Y013068D02*
X001773Y013068D01*
X001773Y012990D02*
X001809Y012990D01*
X001880Y013001D01*
X001948Y013023D01*
X002012Y013056D01*
X002070Y013098D01*
X002121Y013149D01*
X002163Y013207D01*
X002196Y013271D01*
X002218Y013339D01*
X002229Y013410D01*
X002229Y013446D01*
X001773Y013446D01*
X001773Y013446D01*
X001773Y013446D01*
X001773Y012990D01*
X002029Y013068D02*
X002471Y013068D01*
X002364Y012961D02*
X001183Y012961D01*
X000986Y013158D01*
X000986Y017292D01*
X001183Y017489D01*
X007482Y017489D01*
X007806Y017165D01*
X007753Y017112D01*
X007696Y016973D01*
X007696Y016824D01*
X007753Y016685D01*
X007859Y016579D01*
X007998Y016522D01*
X008147Y016522D01*
X008286Y016579D01*
X008339Y016632D01*
X008828Y016143D01*
X008765Y016143D01*
X007674Y015051D01*
X007615Y015051D01*
X007498Y015003D01*
X007409Y014913D01*
X007360Y014796D01*
X007360Y014670D01*
X007409Y014553D01*
X007498Y014463D01*
X007615Y014415D01*
X007742Y014415D01*
X007859Y014463D01*
X007949Y014553D01*
X007997Y014670D01*
X007997Y014728D01*
X008954Y015686D01*
X009285Y015686D01*
X009450Y015520D01*
X009450Y014591D01*
X009397Y014591D01*
X009246Y014591D01*
X009196Y014577D01*
X009150Y014551D01*
X009113Y014514D01*
X009087Y014469D01*
X009074Y014419D01*
X009074Y014143D01*
X009119Y014143D01*
X009119Y014143D01*
X009074Y014143D01*
X009074Y013866D01*
X009087Y013816D01*
X009113Y013771D01*
X009150Y013734D01*
X009196Y013708D01*
X009246Y013694D01*
X009397Y013694D01*
X009397Y013864D01*
X009397Y013864D01*
X009397Y013694D01*
X009450Y013694D01*
X009450Y013355D01*
X008860Y012765D01*
X007608Y012765D01*
X008471Y013627D01*
X008529Y013627D01*
X008647Y013676D01*
X008736Y013765D01*
X008785Y013882D01*
X008785Y014009D01*
X008736Y014126D01*
X008720Y014143D01*
X008736Y014159D01*
X008785Y014276D01*
X008785Y014403D01*
X008736Y014520D01*
X008647Y014609D01*
X008529Y014658D01*
X008403Y014658D01*
X008286Y014609D01*
X008196Y014520D01*
X008148Y014403D01*
X008148Y014344D01*
X006927Y013123D01*
X006498Y013552D01*
X002954Y013552D01*
X002364Y012961D01*
X002454Y012678D02*
X006481Y012678D01*
X006677Y012873D02*
X002695Y012873D01*
X002890Y013068D02*
X006562Y013068D01*
X006786Y013264D02*
X007067Y013264D01*
X007263Y013459D02*
X006591Y013459D01*
X007458Y013654D02*
X002179Y013654D01*
X002229Y013459D02*
X002861Y013459D01*
X002666Y013264D02*
X002192Y013264D01*
X001773Y013264D02*
X001773Y013264D01*
X001773Y013459D02*
X001773Y013459D01*
X001773Y013654D02*
X001773Y013654D01*
X001773Y013850D02*
X001773Y013850D01*
X001683Y013990D02*
X001515Y014059D01*
X001387Y014187D01*
X001317Y014355D01*
X001317Y014536D01*
X001387Y014704D01*
X001515Y014832D01*
X001683Y014902D01*
X001864Y014902D01*
X002031Y014832D01*
X002160Y014704D01*
X002229Y014536D01*
X002229Y014355D01*
X002160Y014187D01*
X002031Y014059D01*
X001864Y013990D01*
X001683Y013990D01*
X001549Y014045D02*
X000986Y014045D01*
X000986Y013850D02*
X001562Y013850D01*
X001368Y013654D02*
X000986Y013654D01*
X000986Y013459D02*
X001317Y013459D01*
X001354Y013264D02*
X000986Y013264D01*
X001092Y012678D02*
X000397Y012678D01*
X000397Y012482D02*
X001317Y012482D01*
X001346Y012287D02*
X000397Y012287D01*
X000397Y012092D02*
X001483Y012092D01*
X001515Y011832D02*
X001387Y011704D01*
X001317Y011536D01*
X001317Y011355D01*
X001387Y011187D01*
X001515Y011059D01*
X001683Y010990D01*
X001864Y010990D01*
X002031Y011059D01*
X002160Y011187D01*
X002229Y011355D01*
X002229Y011536D01*
X002160Y011704D01*
X002031Y011832D01*
X001864Y011902D01*
X001683Y011902D01*
X001515Y011832D01*
X001670Y011896D02*
X000397Y011896D01*
X000397Y011701D02*
X001385Y011701D01*
X001317Y011505D02*
X000397Y011505D01*
X000397Y011310D02*
X001336Y011310D01*
X001459Y011115D02*
X000397Y011115D01*
X000397Y010919D02*
X006269Y010919D01*
X006269Y010724D02*
X000397Y010724D01*
X000397Y010529D02*
X006269Y010529D01*
X006269Y010333D02*
X000397Y010333D01*
X000397Y010138D02*
X006269Y010138D01*
X006269Y009943D02*
X000397Y009943D01*
X000397Y009747D02*
X006269Y009747D01*
X006269Y009552D02*
X002163Y009552D01*
X002113Y009602D02*
X001434Y009602D01*
X001317Y009486D01*
X001317Y008807D01*
X001434Y008691D01*
X002113Y008691D01*
X002229Y008807D01*
X002229Y009486D01*
X002113Y009602D01*
X002229Y009357D02*
X006269Y009357D01*
X006269Y009161D02*
X002229Y009161D01*
X002229Y008966D02*
X006269Y008966D01*
X006269Y008771D02*
X002193Y008771D01*
X002012Y008536D02*
X001948Y008569D01*
X001880Y008591D01*
X001809Y008602D01*
X001773Y008602D01*
X001737Y008602D01*
X001666Y008591D01*
X001598Y008569D01*
X001534Y008536D01*
X001476Y008494D01*
X001425Y008443D01*
X001383Y008385D01*
X001351Y008321D01*
X001329Y008253D01*
X001317Y008182D01*
X001317Y008146D01*
X001317Y008111D01*
X001329Y008040D01*
X001351Y007971D01*
X001383Y007908D01*
X001425Y007849D01*
X001476Y007799D01*
X001534Y007757D01*
X001598Y007724D01*
X001666Y007702D01*
X001737Y007691D01*
X001773Y007691D01*
X001773Y008146D01*
X001773Y008146D01*
X001317Y008146D01*
X001773Y008146D01*
X001773Y008146D01*
X001773Y007691D01*
X001809Y007691D01*
X001880Y007702D01*
X001948Y007724D01*
X002012Y007757D01*
X002070Y007799D01*
X002121Y007849D01*
X002163Y007908D01*
X002196Y007971D01*
X002218Y008040D01*
X002229Y008111D01*
X002229Y008146D01*
X001773Y008146D01*
X001773Y008146D01*
X001773Y008602D01*
X001773Y008146D01*
X001773Y008146D01*
X002229Y008146D01*
X002229Y008182D01*
X002218Y008253D01*
X002196Y008321D01*
X002163Y008385D01*
X002121Y008443D01*
X002070Y008494D01*
X002012Y008536D01*
X001929Y008575D02*
X006269Y008575D01*
X006269Y008380D02*
X002166Y008380D01*
X002229Y008185D02*
X006269Y008185D01*
X006269Y007989D02*
X002201Y007989D01*
X002063Y007794D02*
X006269Y007794D01*
X006269Y007598D02*
X001873Y007598D01*
X001864Y007602D02*
X001683Y007602D01*
X001515Y007533D01*
X001387Y007405D01*
X001317Y007237D01*
X001317Y007056D01*
X001387Y006888D01*
X001515Y006760D01*
X001683Y006691D01*
X001864Y006691D01*
X002031Y006760D01*
X002160Y006888D01*
X002229Y007056D01*
X002229Y007237D01*
X002160Y007405D01*
X002031Y007533D01*
X001864Y007602D01*
X001673Y007598D02*
X000397Y007598D01*
X000397Y007403D02*
X001386Y007403D01*
X001317Y007208D02*
X000397Y007208D01*
X000397Y007012D02*
X001335Y007012D01*
X001458Y006817D02*
X000397Y006817D01*
X000397Y006622D02*
X005740Y006622D01*
X005545Y006426D02*
X002133Y006426D01*
X002121Y006443D02*
X002070Y006494D01*
X002012Y006536D01*
X001948Y006569D01*
X001880Y006591D01*
X001809Y006602D01*
X001773Y006602D01*
X001737Y006602D01*
X001666Y006591D01*
X001598Y006569D01*
X001534Y006536D01*
X001476Y006494D01*
X001425Y006443D01*
X001383Y006385D01*
X001351Y006321D01*
X001329Y006253D01*
X001317Y006182D01*
X001317Y006146D01*
X001317Y006111D01*
X001329Y006040D01*
X001351Y005971D01*
X001383Y005908D01*
X001425Y005849D01*
X001476Y005799D01*
X001534Y005757D01*
X001598Y005724D01*
X001666Y005702D01*
X001737Y005691D01*
X001773Y005691D01*
X001773Y006146D01*
X001773Y006146D01*
X001317Y006146D01*
X001773Y006146D01*
X001773Y006146D01*
X001773Y005691D01*
X001809Y005691D01*
X001880Y005702D01*
X001948Y005724D01*
X002012Y005757D01*
X002070Y005799D01*
X002121Y005849D01*
X002163Y005908D01*
X002196Y005971D01*
X002218Y006040D01*
X002229Y006111D01*
X002229Y006146D01*
X001773Y006146D01*
X001773Y006146D01*
X001773Y006602D01*
X001773Y006146D01*
X001773Y006146D01*
X002229Y006146D01*
X002229Y006182D01*
X002218Y006253D01*
X002196Y006321D01*
X002163Y006385D01*
X002121Y006443D01*
X002221Y006231D02*
X004169Y006231D01*
X003973Y006036D02*
X002217Y006036D01*
X002112Y005840D02*
X003778Y005840D01*
X003583Y005645D02*
X000397Y005645D01*
X000397Y005840D02*
X001435Y005840D01*
X001330Y006036D02*
X000397Y006036D01*
X000397Y006231D02*
X001325Y006231D01*
X001413Y006426D02*
X000397Y006426D01*
X000397Y005450D02*
X003387Y005450D01*
X003545Y005678D02*
X003545Y006072D01*
X004033Y005450D02*
X012387Y005450D01*
X012214Y005645D02*
X004229Y005645D01*
X004424Y005840D02*
X012214Y005840D01*
X012214Y006036D02*
X005800Y006036D01*
X005996Y006231D02*
X012214Y006231D01*
X012214Y006426D02*
X006191Y006426D01*
X006386Y006622D02*
X012214Y006622D01*
X012214Y006817D02*
X006582Y006817D01*
X006726Y007012D02*
X012214Y007012D01*
X012214Y007208D02*
X006726Y007208D01*
X006726Y007403D02*
X012214Y007403D01*
X012214Y007598D02*
X006726Y007598D01*
X006726Y007794D02*
X012214Y007794D01*
X012214Y007989D02*
X006726Y007989D01*
X006726Y008185D02*
X011136Y008185D01*
X011100Y008221D02*
X011206Y008115D01*
X011344Y008057D01*
X011494Y008057D01*
X011632Y008115D01*
X011738Y008221D01*
X011795Y008359D01*
X011795Y008509D01*
X011738Y008647D01*
X011696Y008689D01*
X011696Y010261D01*
X011654Y010363D01*
X011008Y011008D01*
X011008Y011068D01*
X010951Y011206D01*
X010845Y011312D01*
X010706Y011369D01*
X010557Y011369D01*
X010418Y011312D01*
X010312Y011206D01*
X010255Y011068D01*
X010255Y010918D01*
X010312Y010780D01*
X010418Y010674D01*
X010557Y010616D01*
X010616Y010616D01*
X011142Y010091D01*
X011142Y008689D01*
X011100Y008647D01*
X011042Y008509D01*
X011042Y008359D01*
X011100Y008221D01*
X011042Y008380D02*
X006726Y008380D01*
X006726Y008575D02*
X011070Y008575D01*
X011142Y008771D02*
X006726Y008771D01*
X006726Y008966D02*
X011142Y008966D01*
X011142Y009161D02*
X006726Y009161D01*
X006726Y009357D02*
X011142Y009357D01*
X011142Y009552D02*
X006726Y009552D01*
X006726Y009747D02*
X011142Y009747D01*
X011142Y009943D02*
X006726Y009943D01*
X006726Y010138D02*
X011094Y010138D01*
X010899Y010333D02*
X006726Y010333D01*
X006726Y010529D02*
X010704Y010529D01*
X010368Y010724D02*
X006726Y010724D01*
X006726Y010919D02*
X010255Y010919D01*
X010274Y011115D02*
X006726Y011115D01*
X006726Y011310D02*
X010416Y011310D01*
X010741Y011505D02*
X006726Y011505D01*
X006726Y011701D02*
X010545Y011701D01*
X010350Y011896D02*
X006740Y011896D01*
X006935Y012092D02*
X010206Y012092D01*
X010206Y012287D02*
X007130Y012287D01*
X007716Y012873D02*
X008968Y012873D01*
X009164Y013068D02*
X007912Y013068D01*
X008107Y013264D02*
X009359Y013264D01*
X009450Y013459D02*
X008302Y013459D01*
X008595Y013654D02*
X009450Y013654D01*
X009397Y013850D02*
X009397Y013850D01*
X009254Y013749D02*
X009254Y014339D01*
X009397Y014421D02*
X009397Y014591D01*
X009397Y014421D01*
X009397Y014421D01*
X009397Y014436D02*
X009397Y014436D01*
X009450Y014631D02*
X008594Y014631D01*
X008338Y014631D02*
X007981Y014631D01*
X008095Y014826D02*
X009450Y014826D01*
X009450Y015022D02*
X008290Y015022D01*
X008486Y015217D02*
X009450Y015217D01*
X009450Y015412D02*
X008681Y015412D01*
X008877Y015608D02*
X009363Y015608D01*
X009747Y015217D02*
X010335Y015217D01*
X010527Y015022D02*
X009747Y015022D01*
X009747Y014826D02*
X010721Y014826D01*
X010935Y014826D02*
X013280Y014826D01*
X013494Y014826D02*
X013530Y014826D01*
X013530Y014631D02*
X009747Y014631D01*
X009897Y014591D02*
X009897Y014421D01*
X009897Y014421D01*
X009897Y014591D01*
X010041Y014536D02*
X010041Y014339D01*
X010041Y013749D01*
X009897Y013850D02*
X009897Y013850D01*
X009747Y013654D02*
X010757Y013654D01*
X010757Y013459D02*
X009747Y013459D01*
X009734Y013264D02*
X010689Y013264D01*
X010494Y013068D02*
X009583Y013068D01*
X009419Y012873D02*
X010299Y012873D01*
X010206Y012678D02*
X009428Y012678D01*
X009307Y012482D02*
X010206Y012482D01*
X011142Y012873D02*
X013530Y012873D01*
X013530Y013068D02*
X011337Y013068D01*
X011529Y013264D02*
X013530Y013264D01*
X013530Y013459D02*
X011529Y013459D01*
X011529Y013654D02*
X013530Y013654D01*
X013530Y013850D02*
X011606Y013850D01*
X011604Y014045D02*
X013530Y014045D01*
X013530Y014240D02*
X011421Y014240D01*
X011180Y014240D02*
X011106Y014240D01*
X010865Y014240D02*
X010221Y014240D01*
X010221Y014143D02*
X010176Y014143D01*
X010176Y014143D01*
X010221Y014143D01*
X010221Y014045D02*
X010682Y014045D01*
X010681Y013850D02*
X010216Y013850D01*
X010216Y014436D02*
X013530Y014436D01*
X014426Y014436D02*
X014862Y014436D01*
X014862Y014631D02*
X014426Y014631D01*
X014426Y014826D02*
X014862Y014826D01*
X014862Y015022D02*
X014426Y015022D01*
X014426Y015217D02*
X014862Y015217D01*
X014862Y015412D02*
X014426Y015412D01*
X014426Y015608D02*
X014862Y015608D01*
X014862Y015803D02*
X014426Y015803D01*
X014426Y015999D02*
X014862Y015999D01*
X014862Y016194D02*
X014426Y016194D01*
X014426Y016389D02*
X014862Y016389D01*
X014871Y016585D02*
X014426Y016585D01*
X014426Y016780D02*
X015014Y016780D01*
X014765Y016898D02*
X015159Y017292D01*
X015210Y016975D02*
X014426Y016975D01*
X014560Y017171D02*
X015405Y017171D01*
X015498Y017263D02*
X015498Y017263D01*
X015627Y017366D02*
X014709Y017366D01*
X014730Y017561D02*
X019685Y017561D01*
X019685Y017757D02*
X018835Y017757D01*
X019056Y017822D02*
X019056Y017822D01*
X019259Y017952D02*
X019685Y017952D01*
X019685Y018147D02*
X019529Y018147D01*
X017783Y017757D02*
X014730Y017757D01*
X014730Y017952D02*
X017359Y017952D01*
X017131Y018098D02*
X017131Y018098D01*
X017088Y018147D02*
X014730Y018147D01*
X014730Y018343D02*
X016919Y018343D01*
X016796Y018485D02*
X016796Y018485D01*
X016772Y018538D02*
X014617Y018538D01*
X014596Y018929D02*
X014359Y018929D01*
X013596Y018929D02*
X013359Y018929D01*
X013044Y018733D02*
X016682Y018733D01*
X016593Y018929D02*
X016359Y018929D01*
X016546Y019124D02*
X016558Y019124D01*
X015596Y018929D02*
X015359Y018929D01*
X014013Y017757D02*
X013885Y017757D01*
X013205Y017757D02*
X009466Y017757D01*
X009443Y017952D02*
X012840Y017952D01*
X012616Y018147D02*
X009443Y018147D01*
X009443Y018343D02*
X012420Y018343D01*
X012225Y018538D02*
X009443Y018538D01*
X009443Y018733D02*
X012030Y018733D01*
X011133Y019710D02*
X010689Y019710D01*
X010493Y019906D02*
X011100Y019906D01*
X011218Y020101D02*
X010298Y020101D01*
X010066Y019320D02*
X009533Y019320D01*
X009486Y019124D02*
X010261Y019124D01*
X010496Y018929D02*
X009443Y018929D01*
X008828Y018929D02*
X008449Y018929D01*
X008443Y019124D02*
X008627Y019124D01*
X008431Y018733D02*
X008828Y018733D01*
X008828Y018538D02*
X008449Y018538D01*
X008426Y018343D02*
X008828Y018343D01*
X008828Y018147D02*
X008270Y018147D01*
X007829Y017561D02*
X008828Y017561D01*
X009014Y017366D02*
X008025Y017366D01*
X008220Y017171D02*
X009209Y017171D01*
X009405Y016975D02*
X008415Y016975D01*
X008611Y016780D02*
X009600Y016780D01*
X009796Y016585D02*
X008806Y016585D01*
X009001Y016389D02*
X009991Y016389D01*
X010001Y016194D02*
X010186Y016194D01*
X010154Y015999D02*
X010382Y015999D01*
X010285Y015803D02*
X010143Y015803D01*
X010584Y015803D02*
X010646Y015803D01*
X010743Y015608D02*
X010946Y015608D01*
X011010Y015803D02*
X012754Y015803D01*
X012795Y015999D02*
X011143Y015999D01*
X011122Y016194D02*
X012844Y016194D01*
X012844Y016389D02*
X010894Y016389D01*
X010763Y016389D02*
X010637Y016389D01*
X010442Y016585D02*
X012844Y016585D01*
X012844Y016780D02*
X010246Y016780D01*
X010124Y016975D02*
X012844Y016975D01*
X012844Y017171D02*
X010273Y017171D01*
X010260Y017366D02*
X012941Y017366D01*
X013073Y017561D02*
X010049Y017561D01*
X009875Y017561D02*
X009662Y017561D01*
X008386Y016585D02*
X008291Y016585D01*
X008582Y016389D02*
X002229Y016389D01*
X002229Y016194D02*
X008777Y016194D01*
X008621Y015999D02*
X002122Y015999D01*
X002113Y015990D02*
X002229Y016106D01*
X002229Y016785D01*
X002113Y016902D01*
X001434Y016902D01*
X001317Y016785D01*
X001317Y016106D01*
X001434Y015990D01*
X002113Y015990D01*
X002031Y015832D02*
X002160Y015704D01*
X002229Y015536D01*
X002229Y015355D01*
X002160Y015187D01*
X002031Y015059D01*
X001864Y014990D01*
X001683Y014990D01*
X001515Y015059D01*
X001387Y015187D01*
X001317Y015355D01*
X001317Y015536D01*
X001387Y015704D01*
X001515Y015832D01*
X001683Y015902D01*
X001864Y015902D01*
X002031Y015832D01*
X002060Y015803D02*
X008426Y015803D01*
X008230Y015608D02*
X002200Y015608D01*
X002229Y015412D02*
X008035Y015412D01*
X007840Y015217D02*
X002172Y015217D01*
X001941Y015022D02*
X007544Y015022D01*
X007373Y014826D02*
X002037Y014826D01*
X002190Y014631D02*
X007376Y014631D01*
X007564Y014436D02*
X002229Y014436D01*
X002182Y014240D02*
X008044Y014240D01*
X008161Y014436D02*
X007793Y014436D01*
X007849Y014045D02*
X001997Y014045D01*
X001985Y013850D02*
X007653Y013850D01*
X008771Y013850D02*
X009078Y013850D01*
X009074Y014045D02*
X008770Y014045D01*
X008770Y014240D02*
X009074Y014240D01*
X009078Y014436D02*
X008771Y014436D01*
X009897Y014436D02*
X009897Y014436D01*
X009687Y016194D02*
X009197Y016194D01*
X007854Y016585D02*
X002229Y016585D01*
X002229Y016780D02*
X007714Y016780D01*
X007697Y016975D02*
X000986Y016975D01*
X000986Y016780D02*
X001317Y016780D01*
X001317Y016585D02*
X000986Y016585D01*
X000986Y016389D02*
X001317Y016389D01*
X001317Y016194D02*
X000986Y016194D01*
X000986Y015999D02*
X001425Y015999D01*
X001486Y015803D02*
X000986Y015803D01*
X000986Y015608D02*
X001347Y015608D01*
X001317Y015412D02*
X000986Y015412D01*
X000986Y015217D02*
X001374Y015217D01*
X001605Y015022D02*
X000986Y015022D01*
X000986Y014826D02*
X001509Y014826D01*
X001357Y014631D02*
X000986Y014631D01*
X000986Y014436D02*
X001317Y014436D01*
X001365Y014240D02*
X000986Y014240D01*
X002229Y012482D02*
X006286Y012482D01*
X006020Y012287D02*
X002201Y012287D01*
X002064Y012092D02*
X005807Y012092D01*
X005793Y011896D02*
X001877Y011896D01*
X002161Y011701D02*
X005939Y011701D01*
X006269Y011505D02*
X002229Y011505D01*
X002211Y011310D02*
X006269Y011310D01*
X006269Y011115D02*
X002087Y011115D01*
X001383Y009552D02*
X000397Y009552D01*
X000397Y009357D02*
X001317Y009357D01*
X001317Y009161D02*
X000397Y009161D01*
X000397Y008966D02*
X001317Y008966D01*
X001354Y008771D02*
X000397Y008771D01*
X000397Y008575D02*
X001617Y008575D01*
X001773Y008575D02*
X001773Y008575D01*
X001773Y008380D02*
X001773Y008380D01*
X001773Y008185D02*
X001773Y008185D01*
X001773Y007989D02*
X001773Y007989D01*
X001773Y007794D02*
X001773Y007794D01*
X001483Y007794D02*
X000397Y007794D01*
X000397Y007989D02*
X001345Y007989D01*
X001318Y008185D02*
X000397Y008185D01*
X000397Y008380D02*
X001380Y008380D01*
X002160Y007403D02*
X006269Y007403D01*
X006269Y007208D02*
X002229Y007208D01*
X002211Y007012D02*
X006131Y007012D01*
X005936Y006817D02*
X002089Y006817D01*
X001773Y006426D02*
X001773Y006426D01*
X001773Y006231D02*
X001773Y006231D01*
X001773Y006036D02*
X001773Y006036D01*
X001773Y005840D02*
X001773Y005840D01*
X001402Y004668D02*
X000397Y004668D01*
X000397Y004473D02*
X000894Y004473D01*
X001026Y004558D02*
X001026Y004558D01*
X000596Y004281D02*
X000596Y004281D01*
X000592Y004278D02*
X000397Y004278D01*
X000397Y004082D02*
X000423Y004082D01*
X000397Y004864D02*
X003122Y004864D01*
X003030Y005059D02*
X000397Y005059D01*
X000397Y005254D02*
X003072Y005254D01*
X003575Y004864D02*
X019685Y004864D01*
X019685Y005059D02*
X013297Y005059D01*
X013351Y005254D02*
X019685Y005254D01*
X019685Y005450D02*
X013316Y005450D01*
X013351Y005645D02*
X019685Y005645D01*
X019685Y005840D02*
X013242Y005840D01*
X012828Y006036D02*
X019685Y006036D01*
X019685Y006231D02*
X012828Y006231D01*
X012828Y006426D02*
X019685Y006426D01*
X019685Y006622D02*
X012828Y006622D01*
X012828Y006817D02*
X013858Y006817D01*
X014098Y006817D02*
X019685Y006817D01*
X019685Y007012D02*
X014364Y007012D01*
X014426Y007208D02*
X019685Y007208D01*
X019685Y007403D02*
X014426Y007403D01*
X014426Y007598D02*
X019685Y007598D01*
X019685Y007794D02*
X014426Y007794D01*
X014426Y007989D02*
X019685Y007989D01*
X019685Y008185D02*
X014426Y008185D01*
X014426Y008380D02*
X019685Y008380D01*
X019685Y008575D02*
X014426Y008575D01*
X014426Y008771D02*
X019685Y008771D01*
X019685Y008966D02*
X014426Y008966D01*
X014426Y009161D02*
X019685Y009161D01*
X019685Y009357D02*
X014426Y009357D01*
X014426Y009552D02*
X019685Y009552D01*
X019685Y009747D02*
X014426Y009747D01*
X014426Y009943D02*
X019685Y009943D01*
X019685Y010138D02*
X014426Y010138D01*
X014426Y010333D02*
X019685Y010333D01*
X019685Y010529D02*
X014426Y010529D01*
X014426Y010724D02*
X019685Y010724D01*
X019685Y010919D02*
X014426Y010919D01*
X014426Y011115D02*
X019685Y011115D01*
X019685Y011310D02*
X014426Y011310D01*
X014426Y011505D02*
X019685Y011505D01*
X019685Y011701D02*
X014426Y011701D01*
X014426Y011896D02*
X019685Y011896D01*
X015648Y012092D02*
X014426Y012092D01*
X014426Y012287D02*
X015414Y012287D01*
X015218Y012482D02*
X014426Y012482D01*
X014426Y012678D02*
X015023Y012678D01*
X014991Y012710D02*
X014991Y012710D01*
X014874Y012873D02*
X014426Y012873D01*
X014426Y013068D02*
X014862Y013068D01*
X014862Y013264D02*
X014426Y013264D01*
X014569Y013355D02*
X014569Y013552D01*
X014426Y013459D02*
X014862Y013459D01*
X014862Y013654D02*
X014426Y013654D01*
X014426Y013850D02*
X014862Y013850D01*
X014862Y014045D02*
X014426Y014045D01*
X014426Y014240D02*
X014862Y014240D01*
X013530Y012678D02*
X012660Y012678D01*
X012687Y012092D02*
X013530Y012092D01*
X013530Y011896D02*
X013268Y011896D01*
X013113Y011896D02*
X011890Y011896D01*
X011735Y011896D02*
X011193Y011896D01*
X011388Y011701D02*
X011517Y011701D01*
X011403Y012092D02*
X011403Y012092D01*
X011403Y012287D02*
X011403Y012287D01*
X011403Y012482D02*
X011403Y012482D01*
X011403Y012678D02*
X011403Y012678D01*
X010936Y011310D02*
X010847Y011310D01*
X010989Y011115D02*
X011131Y011115D01*
X011097Y010919D02*
X011327Y010919D01*
X011292Y010724D02*
X011522Y010724D01*
X011488Y010529D02*
X011718Y010529D01*
X011666Y010333D02*
X011913Y010333D01*
X012108Y010138D02*
X011696Y010138D01*
X011696Y009943D02*
X012214Y009943D01*
X012214Y009747D02*
X011696Y009747D01*
X011696Y009552D02*
X012214Y009552D01*
X012214Y009357D02*
X011696Y009357D01*
X011696Y009161D02*
X012214Y009161D01*
X012214Y008966D02*
X011696Y008966D01*
X011696Y008771D02*
X012214Y008771D01*
X012214Y008575D02*
X011768Y008575D01*
X011795Y008380D02*
X012214Y008380D01*
X012214Y008185D02*
X011702Y008185D01*
X012828Y008185D02*
X013530Y008185D01*
X013530Y008380D02*
X012828Y008380D01*
X012828Y008575D02*
X013530Y008575D01*
X013530Y008771D02*
X012828Y008771D01*
X012828Y008966D02*
X013530Y008966D01*
X013530Y009161D02*
X012828Y009161D01*
X012828Y009357D02*
X013530Y009357D01*
X013530Y009552D02*
X012828Y009552D01*
X012828Y009747D02*
X013530Y009747D01*
X013530Y009943D02*
X012828Y009943D01*
X012828Y010138D02*
X013530Y010138D01*
X013530Y010333D02*
X012756Y010333D01*
X012560Y010529D02*
X013530Y010529D01*
X013530Y010724D02*
X012365Y010724D01*
X012170Y010919D02*
X013530Y010919D01*
X013530Y011115D02*
X011974Y011115D01*
X011985Y011310D02*
X013018Y011310D01*
X013363Y011310D02*
X013530Y011310D01*
X013530Y011505D02*
X013503Y011505D01*
X013487Y011701D02*
X013530Y011701D01*
X013530Y007989D02*
X012828Y007989D01*
X012828Y007794D02*
X013530Y007794D01*
X013530Y007598D02*
X012828Y007598D01*
X012828Y007403D02*
X013530Y007403D01*
X013530Y007208D02*
X012828Y007208D01*
X012828Y007012D02*
X013592Y007012D01*
X012583Y005254D02*
X003838Y005254D01*
X003666Y005059D02*
X012769Y005059D01*
X013416Y003311D02*
X013314Y003208D01*
X013258Y003074D01*
X013258Y002928D01*
X013314Y002794D01*
X013416Y002691D01*
X013551Y002635D01*
X013696Y002635D01*
X013831Y002691D01*
X013934Y002794D01*
X013989Y002928D01*
X013989Y003074D01*
X013934Y003208D01*
X013831Y003311D01*
X013696Y003367D01*
X013551Y003367D01*
X013416Y003311D01*
X013406Y003301D02*
X003517Y003301D01*
X003499Y003429D02*
X003499Y003429D01*
X003468Y003496D02*
X016614Y003496D01*
X016565Y003301D02*
X015337Y003301D01*
X015327Y003311D02*
X015192Y003367D01*
X015047Y003367D01*
X014913Y003311D01*
X014810Y003208D01*
X014754Y003074D01*
X014754Y002928D01*
X014810Y002794D01*
X014913Y002691D01*
X015047Y002635D01*
X015192Y002635D01*
X015327Y002691D01*
X015430Y002794D01*
X015485Y002928D01*
X015485Y003074D01*
X015430Y003208D01*
X015327Y003311D01*
X015472Y003105D02*
X016537Y003105D01*
X016510Y002922D02*
X016510Y002922D01*
X016512Y002910D02*
X015478Y002910D01*
X015351Y002715D02*
X016540Y002715D01*
X016568Y002519D02*
X003514Y002519D01*
X003542Y002715D02*
X013392Y002715D01*
X013265Y002910D02*
X003570Y002910D01*
X003545Y003105D02*
X013271Y003105D01*
X013841Y003301D02*
X014902Y003301D01*
X014767Y003105D02*
X013976Y003105D01*
X013982Y002910D02*
X014761Y002910D01*
X014889Y002715D02*
X013855Y002715D01*
X016583Y002415D02*
X016583Y002415D01*
X016625Y002324D02*
X003457Y002324D01*
X003368Y002129D02*
X016714Y002129D01*
X016796Y001950D02*
X016796Y001950D01*
X016810Y001933D02*
X003272Y001933D01*
X003286Y001950D02*
X003286Y001950D01*
X003103Y001738D02*
X016979Y001738D01*
X017131Y001563D02*
X017131Y001563D01*
X016703Y003691D02*
X003379Y003691D01*
X003290Y003887D02*
X016792Y003887D01*
X016796Y003894D02*
X016796Y003894D01*
X016958Y004082D02*
X003123Y004082D01*
X003286Y003894D02*
X003286Y003894D01*
X002954Y004278D02*
X017128Y004278D01*
X017131Y004281D02*
X017131Y004281D01*
X017131Y004281D01*
X017429Y004473D02*
X002653Y004473D01*
X002520Y004558D02*
X002520Y004558D01*
X002145Y004668D02*
X017937Y004668D01*
X018680Y004668D02*
X019685Y004668D01*
X019685Y004473D02*
X019188Y004473D01*
X019486Y004281D02*
X019486Y004281D01*
X019490Y004278D02*
X019685Y004278D01*
X019685Y004082D02*
X019659Y004082D01*
X006104Y010402D02*
X005907Y010402D01*
X002951Y004281D02*
X002951Y004281D01*
X002951Y001563D02*
X002951Y001563D01*
X000986Y017171D02*
X007800Y017171D01*
X007605Y017366D02*
X001060Y017366D01*
D18*
X005317Y015520D03*
X006301Y016898D03*
X008072Y016898D03*
X008072Y018473D03*
X008072Y018867D03*
X005907Y019457D03*
X009057Y012765D03*
X010631Y010993D03*
X009844Y008631D03*
X011419Y008434D03*
X012009Y008434D03*
X013978Y008040D03*
X013978Y007646D03*
X013978Y007253D03*
X016931Y010402D03*
X014569Y013552D03*
X013978Y016702D03*
X013978Y017095D03*
X014765Y016898D03*
X006104Y010402D03*
X005120Y012371D03*
X004726Y012371D03*
X007876Y006662D03*
X005120Y004694D03*
X003545Y006072D03*
X014962Y003631D03*
D19*
X007876Y006662D02*
X007482Y006662D01*
X005120Y012371D02*
X004529Y012371D01*
X006104Y016898D02*
X006301Y016898D01*
D20*
X009254Y014536D02*
X009254Y014339D01*
X009450Y015520D02*
X010435Y015520D01*
X010435Y015127D02*
X010828Y015520D01*
X009057Y012961D02*
X009057Y012765D01*
X010631Y010993D02*
X011419Y010206D01*
X011419Y008434D01*
X009844Y008434D02*
X009844Y008631D01*
X012403Y012371D02*
X013978Y012371D01*
X005120Y004694D02*
X005120Y004497D01*
X014962Y003631D02*
X015080Y003631D01*
X015120Y003670D01*
D21*
X013033Y005245D02*
X012915Y005245D01*
X012443Y005717D01*
X012443Y010127D01*
X010435Y012135D01*
X010435Y012686D01*
X010986Y013237D01*
X010986Y013946D01*
X011301Y013946D02*
X011301Y013355D01*
X010592Y012646D01*
X010592Y012174D01*
X012600Y010166D01*
X012600Y005757D01*
X012757Y005599D01*
X013033Y005599D01*
X013191Y011583D02*
X011813Y011583D01*
X009450Y013946D02*
X009450Y014089D01*
X009397Y014143D01*
X009450Y014196D01*
X009450Y014339D01*
X009254Y014339D01*
X009254Y014536D02*
X009450Y014733D01*
X009450Y015520D01*
X009844Y015914D02*
X008860Y015914D01*
X007679Y014733D01*
X008466Y014339D02*
X006104Y011977D01*
X006498Y011977D02*
X006498Y007056D01*
X005513Y006072D01*
X004332Y006072D01*
X003348Y005087D01*
X006498Y011977D02*
X008466Y013946D01*
X009897Y014143D02*
X010041Y014339D01*
X010041Y014536D02*
X010435Y014930D01*
X010435Y015127D01*
X010828Y015127D02*
X013387Y015127D01*
X013387Y015442D02*
X011222Y015442D01*
X010828Y016072D02*
X010631Y016072D01*
X009057Y017646D01*
X009057Y019143D01*
X008899Y019300D01*
X009214Y019300D02*
X009214Y017686D01*
X009608Y017292D01*
X009962Y017292D01*
X009962Y017253D01*
X009844Y018276D02*
X009844Y018473D01*
X011025Y018670D02*
X011222Y018670D01*
X011419Y019851D02*
X013584Y019851D01*
X013978Y019457D01*
X013978Y019351D01*
X013702Y017489D02*
X013387Y017174D01*
X013387Y015835D01*
X013072Y015835D02*
X013072Y017174D01*
X013387Y017489D01*
D22*
X013387Y017489D03*
X013702Y017489D03*
X013387Y015835D03*
X013072Y015835D03*
X012797Y015993D03*
X012639Y015835D03*
X013387Y015442D03*
X013387Y015127D03*
X011222Y015442D03*
X010828Y015127D03*
X010435Y015520D03*
X010828Y016072D03*
X009844Y015914D03*
X009962Y017253D03*
X009844Y017883D03*
X009844Y018276D03*
X009214Y019300D03*
X008899Y019300D03*
X011222Y018670D03*
X011419Y019851D03*
X007679Y014733D03*
X008466Y014339D03*
X008466Y013946D03*
X009450Y014339D03*
X010986Y013946D03*
X011301Y013946D03*
X011813Y011583D03*
X013191Y011583D03*
X013033Y005599D03*
X013033Y005245D03*
X006104Y011977D03*
X003348Y005087D03*
D23*
X008072Y016898D02*
X008466Y017292D01*
X008072Y018473D02*
X008072Y018867D01*
X008072Y019261D01*
X008663Y019851D01*
X010041Y019851D01*
X010631Y019261D01*
X011887Y019261D01*
X011978Y019351D01*
X011978Y019292D02*
X012994Y018276D01*
X014372Y018276D01*
X014372Y017489D01*
X013978Y017095D01*
X016734Y010402D02*
X016931Y010402D01*
D24*
X013978Y012371D02*
X013978Y008040D01*
X013978Y007646D01*
X013978Y007253D01*
X013978Y012371D02*
X013978Y016702D01*
X013978Y017095D01*
X011978Y019292D02*
X011978Y019351D01*
M02*
