G75*
%MOIN*%
%OFA0B0*%
%FSLAX24Y24*%
%IPPOS*%
%LPD*%
%AMOC8*
5,1,8,0,0,1.08239X$1,22.5*
%
%ADD10C,0.0000*%
%ADD11R,0.0555X0.0555*%
%ADD12C,0.0555*%
%ADD13C,0.1300*%
D10*
X000198Y000198D02*
X000198Y019883D01*
X019883Y019883D01*
X019883Y000198D01*
X000198Y000198D01*
X001143Y001773D02*
X001145Y001823D01*
X001151Y001873D01*
X001161Y001922D01*
X001175Y001970D01*
X001192Y002017D01*
X001213Y002062D01*
X001238Y002106D01*
X001266Y002147D01*
X001298Y002186D01*
X001332Y002223D01*
X001369Y002257D01*
X001409Y002287D01*
X001451Y002314D01*
X001495Y002338D01*
X001541Y002359D01*
X001588Y002375D01*
X001636Y002388D01*
X001686Y002397D01*
X001735Y002402D01*
X001786Y002403D01*
X001836Y002400D01*
X001885Y002393D01*
X001934Y002382D01*
X001982Y002367D01*
X002028Y002349D01*
X002073Y002327D01*
X002116Y002301D01*
X002157Y002272D01*
X002196Y002240D01*
X002232Y002205D01*
X002264Y002167D01*
X002294Y002127D01*
X002321Y002084D01*
X002344Y002040D01*
X002363Y001994D01*
X002379Y001946D01*
X002391Y001897D01*
X002399Y001848D01*
X002403Y001798D01*
X002403Y001748D01*
X002399Y001698D01*
X002391Y001649D01*
X002379Y001600D01*
X002363Y001552D01*
X002344Y001506D01*
X002321Y001462D01*
X002294Y001419D01*
X002264Y001379D01*
X002232Y001341D01*
X002196Y001306D01*
X002157Y001274D01*
X002116Y001245D01*
X002073Y001219D01*
X002028Y001197D01*
X001982Y001179D01*
X001934Y001164D01*
X001885Y001153D01*
X001836Y001146D01*
X001786Y001143D01*
X001735Y001144D01*
X001686Y001149D01*
X001636Y001158D01*
X001588Y001171D01*
X001541Y001187D01*
X001495Y001208D01*
X001451Y001232D01*
X001409Y001259D01*
X001369Y001289D01*
X001332Y001323D01*
X001298Y001360D01*
X001266Y001399D01*
X001238Y001440D01*
X001213Y001484D01*
X001192Y001529D01*
X001175Y001576D01*
X001161Y001624D01*
X001151Y001673D01*
X001145Y001723D01*
X001143Y001773D01*
X001143Y018309D02*
X001145Y018359D01*
X001151Y018409D01*
X001161Y018458D01*
X001175Y018506D01*
X001192Y018553D01*
X001213Y018598D01*
X001238Y018642D01*
X001266Y018683D01*
X001298Y018722D01*
X001332Y018759D01*
X001369Y018793D01*
X001409Y018823D01*
X001451Y018850D01*
X001495Y018874D01*
X001541Y018895D01*
X001588Y018911D01*
X001636Y018924D01*
X001686Y018933D01*
X001735Y018938D01*
X001786Y018939D01*
X001836Y018936D01*
X001885Y018929D01*
X001934Y018918D01*
X001982Y018903D01*
X002028Y018885D01*
X002073Y018863D01*
X002116Y018837D01*
X002157Y018808D01*
X002196Y018776D01*
X002232Y018741D01*
X002264Y018703D01*
X002294Y018663D01*
X002321Y018620D01*
X002344Y018576D01*
X002363Y018530D01*
X002379Y018482D01*
X002391Y018433D01*
X002399Y018384D01*
X002403Y018334D01*
X002403Y018284D01*
X002399Y018234D01*
X002391Y018185D01*
X002379Y018136D01*
X002363Y018088D01*
X002344Y018042D01*
X002321Y017998D01*
X002294Y017955D01*
X002264Y017915D01*
X002232Y017877D01*
X002196Y017842D01*
X002157Y017810D01*
X002116Y017781D01*
X002073Y017755D01*
X002028Y017733D01*
X001982Y017715D01*
X001934Y017700D01*
X001885Y017689D01*
X001836Y017682D01*
X001786Y017679D01*
X001735Y017680D01*
X001686Y017685D01*
X001636Y017694D01*
X001588Y017707D01*
X001541Y017723D01*
X001495Y017744D01*
X001451Y017768D01*
X001409Y017795D01*
X001369Y017825D01*
X001332Y017859D01*
X001298Y017896D01*
X001266Y017935D01*
X001238Y017976D01*
X001213Y018020D01*
X001192Y018065D01*
X001175Y018112D01*
X001161Y018160D01*
X001151Y018209D01*
X001145Y018259D01*
X001143Y018309D01*
X017679Y018309D02*
X017681Y018359D01*
X017687Y018409D01*
X017697Y018458D01*
X017711Y018506D01*
X017728Y018553D01*
X017749Y018598D01*
X017774Y018642D01*
X017802Y018683D01*
X017834Y018722D01*
X017868Y018759D01*
X017905Y018793D01*
X017945Y018823D01*
X017987Y018850D01*
X018031Y018874D01*
X018077Y018895D01*
X018124Y018911D01*
X018172Y018924D01*
X018222Y018933D01*
X018271Y018938D01*
X018322Y018939D01*
X018372Y018936D01*
X018421Y018929D01*
X018470Y018918D01*
X018518Y018903D01*
X018564Y018885D01*
X018609Y018863D01*
X018652Y018837D01*
X018693Y018808D01*
X018732Y018776D01*
X018768Y018741D01*
X018800Y018703D01*
X018830Y018663D01*
X018857Y018620D01*
X018880Y018576D01*
X018899Y018530D01*
X018915Y018482D01*
X018927Y018433D01*
X018935Y018384D01*
X018939Y018334D01*
X018939Y018284D01*
X018935Y018234D01*
X018927Y018185D01*
X018915Y018136D01*
X018899Y018088D01*
X018880Y018042D01*
X018857Y017998D01*
X018830Y017955D01*
X018800Y017915D01*
X018768Y017877D01*
X018732Y017842D01*
X018693Y017810D01*
X018652Y017781D01*
X018609Y017755D01*
X018564Y017733D01*
X018518Y017715D01*
X018470Y017700D01*
X018421Y017689D01*
X018372Y017682D01*
X018322Y017679D01*
X018271Y017680D01*
X018222Y017685D01*
X018172Y017694D01*
X018124Y017707D01*
X018077Y017723D01*
X018031Y017744D01*
X017987Y017768D01*
X017945Y017795D01*
X017905Y017825D01*
X017868Y017859D01*
X017834Y017896D01*
X017802Y017935D01*
X017774Y017976D01*
X017749Y018020D01*
X017728Y018065D01*
X017711Y018112D01*
X017697Y018160D01*
X017687Y018209D01*
X017681Y018259D01*
X017679Y018309D01*
X017679Y001773D02*
X017681Y001823D01*
X017687Y001873D01*
X017697Y001922D01*
X017711Y001970D01*
X017728Y002017D01*
X017749Y002062D01*
X017774Y002106D01*
X017802Y002147D01*
X017834Y002186D01*
X017868Y002223D01*
X017905Y002257D01*
X017945Y002287D01*
X017987Y002314D01*
X018031Y002338D01*
X018077Y002359D01*
X018124Y002375D01*
X018172Y002388D01*
X018222Y002397D01*
X018271Y002402D01*
X018322Y002403D01*
X018372Y002400D01*
X018421Y002393D01*
X018470Y002382D01*
X018518Y002367D01*
X018564Y002349D01*
X018609Y002327D01*
X018652Y002301D01*
X018693Y002272D01*
X018732Y002240D01*
X018768Y002205D01*
X018800Y002167D01*
X018830Y002127D01*
X018857Y002084D01*
X018880Y002040D01*
X018899Y001994D01*
X018915Y001946D01*
X018927Y001897D01*
X018935Y001848D01*
X018939Y001798D01*
X018939Y001748D01*
X018935Y001698D01*
X018927Y001649D01*
X018915Y001600D01*
X018899Y001552D01*
X018880Y001506D01*
X018857Y001462D01*
X018830Y001419D01*
X018800Y001379D01*
X018768Y001341D01*
X018732Y001306D01*
X018693Y001274D01*
X018652Y001245D01*
X018609Y001219D01*
X018564Y001197D01*
X018518Y001179D01*
X018470Y001164D01*
X018421Y001153D01*
X018372Y001146D01*
X018322Y001143D01*
X018271Y001144D01*
X018222Y001149D01*
X018172Y001158D01*
X018124Y001171D01*
X018077Y001187D01*
X018031Y001208D01*
X017987Y001232D01*
X017945Y001259D01*
X017905Y001289D01*
X017868Y001323D01*
X017834Y001360D01*
X017802Y001399D01*
X017774Y001440D01*
X017749Y001484D01*
X017728Y001529D01*
X017711Y001576D01*
X017697Y001624D01*
X017687Y001673D01*
X017681Y001723D01*
X017679Y001773D01*
D11*
X018309Y005104D03*
X018309Y012084D03*
X001773Y015297D03*
X001773Y007998D03*
D12*
X001773Y006998D03*
X001773Y005998D03*
X001773Y004998D03*
X001773Y010297D03*
X001773Y011297D03*
X001773Y012297D03*
X001773Y013297D03*
X001773Y014297D03*
X018309Y014084D03*
X018309Y013084D03*
X018309Y015084D03*
X018309Y007104D03*
X018309Y006104D03*
D13*
X018309Y001773D03*
X018309Y018309D03*
X001773Y018309D03*
X001773Y001773D03*
M02*
