G75*
%MOIN*%
%OFA0B0*%
%FSLAX24Y24*%
%IPPOS*%
%LPD*%
%AMOC8*
5,1,8,0,0,1.08239X$1,22.5*
%
%ADD10C,0.0000*%
%ADD11C,0.0197*%
%ADD12C,0.0060*%
D10*
X000198Y000198D02*
X000198Y019883D01*
X019883Y019883D01*
X019883Y000198D01*
X000198Y000198D01*
X001143Y001773D02*
X001145Y001823D01*
X001151Y001873D01*
X001161Y001922D01*
X001175Y001970D01*
X001192Y002017D01*
X001213Y002062D01*
X001238Y002106D01*
X001266Y002147D01*
X001298Y002186D01*
X001332Y002223D01*
X001369Y002257D01*
X001409Y002287D01*
X001451Y002314D01*
X001495Y002338D01*
X001541Y002359D01*
X001588Y002375D01*
X001636Y002388D01*
X001686Y002397D01*
X001735Y002402D01*
X001786Y002403D01*
X001836Y002400D01*
X001885Y002393D01*
X001934Y002382D01*
X001982Y002367D01*
X002028Y002349D01*
X002073Y002327D01*
X002116Y002301D01*
X002157Y002272D01*
X002196Y002240D01*
X002232Y002205D01*
X002264Y002167D01*
X002294Y002127D01*
X002321Y002084D01*
X002344Y002040D01*
X002363Y001994D01*
X002379Y001946D01*
X002391Y001897D01*
X002399Y001848D01*
X002403Y001798D01*
X002403Y001748D01*
X002399Y001698D01*
X002391Y001649D01*
X002379Y001600D01*
X002363Y001552D01*
X002344Y001506D01*
X002321Y001462D01*
X002294Y001419D01*
X002264Y001379D01*
X002232Y001341D01*
X002196Y001306D01*
X002157Y001274D01*
X002116Y001245D01*
X002073Y001219D01*
X002028Y001197D01*
X001982Y001179D01*
X001934Y001164D01*
X001885Y001153D01*
X001836Y001146D01*
X001786Y001143D01*
X001735Y001144D01*
X001686Y001149D01*
X001636Y001158D01*
X001588Y001171D01*
X001541Y001187D01*
X001495Y001208D01*
X001451Y001232D01*
X001409Y001259D01*
X001369Y001289D01*
X001332Y001323D01*
X001298Y001360D01*
X001266Y001399D01*
X001238Y001440D01*
X001213Y001484D01*
X001192Y001529D01*
X001175Y001576D01*
X001161Y001624D01*
X001151Y001673D01*
X001145Y001723D01*
X001143Y001773D01*
X001143Y018309D02*
X001145Y018359D01*
X001151Y018409D01*
X001161Y018458D01*
X001175Y018506D01*
X001192Y018553D01*
X001213Y018598D01*
X001238Y018642D01*
X001266Y018683D01*
X001298Y018722D01*
X001332Y018759D01*
X001369Y018793D01*
X001409Y018823D01*
X001451Y018850D01*
X001495Y018874D01*
X001541Y018895D01*
X001588Y018911D01*
X001636Y018924D01*
X001686Y018933D01*
X001735Y018938D01*
X001786Y018939D01*
X001836Y018936D01*
X001885Y018929D01*
X001934Y018918D01*
X001982Y018903D01*
X002028Y018885D01*
X002073Y018863D01*
X002116Y018837D01*
X002157Y018808D01*
X002196Y018776D01*
X002232Y018741D01*
X002264Y018703D01*
X002294Y018663D01*
X002321Y018620D01*
X002344Y018576D01*
X002363Y018530D01*
X002379Y018482D01*
X002391Y018433D01*
X002399Y018384D01*
X002403Y018334D01*
X002403Y018284D01*
X002399Y018234D01*
X002391Y018185D01*
X002379Y018136D01*
X002363Y018088D01*
X002344Y018042D01*
X002321Y017998D01*
X002294Y017955D01*
X002264Y017915D01*
X002232Y017877D01*
X002196Y017842D01*
X002157Y017810D01*
X002116Y017781D01*
X002073Y017755D01*
X002028Y017733D01*
X001982Y017715D01*
X001934Y017700D01*
X001885Y017689D01*
X001836Y017682D01*
X001786Y017679D01*
X001735Y017680D01*
X001686Y017685D01*
X001636Y017694D01*
X001588Y017707D01*
X001541Y017723D01*
X001495Y017744D01*
X001451Y017768D01*
X001409Y017795D01*
X001369Y017825D01*
X001332Y017859D01*
X001298Y017896D01*
X001266Y017935D01*
X001238Y017976D01*
X001213Y018020D01*
X001192Y018065D01*
X001175Y018112D01*
X001161Y018160D01*
X001151Y018209D01*
X001145Y018259D01*
X001143Y018309D01*
X017679Y018309D02*
X017681Y018359D01*
X017687Y018409D01*
X017697Y018458D01*
X017711Y018506D01*
X017728Y018553D01*
X017749Y018598D01*
X017774Y018642D01*
X017802Y018683D01*
X017834Y018722D01*
X017868Y018759D01*
X017905Y018793D01*
X017945Y018823D01*
X017987Y018850D01*
X018031Y018874D01*
X018077Y018895D01*
X018124Y018911D01*
X018172Y018924D01*
X018222Y018933D01*
X018271Y018938D01*
X018322Y018939D01*
X018372Y018936D01*
X018421Y018929D01*
X018470Y018918D01*
X018518Y018903D01*
X018564Y018885D01*
X018609Y018863D01*
X018652Y018837D01*
X018693Y018808D01*
X018732Y018776D01*
X018768Y018741D01*
X018800Y018703D01*
X018830Y018663D01*
X018857Y018620D01*
X018880Y018576D01*
X018899Y018530D01*
X018915Y018482D01*
X018927Y018433D01*
X018935Y018384D01*
X018939Y018334D01*
X018939Y018284D01*
X018935Y018234D01*
X018927Y018185D01*
X018915Y018136D01*
X018899Y018088D01*
X018880Y018042D01*
X018857Y017998D01*
X018830Y017955D01*
X018800Y017915D01*
X018768Y017877D01*
X018732Y017842D01*
X018693Y017810D01*
X018652Y017781D01*
X018609Y017755D01*
X018564Y017733D01*
X018518Y017715D01*
X018470Y017700D01*
X018421Y017689D01*
X018372Y017682D01*
X018322Y017679D01*
X018271Y017680D01*
X018222Y017685D01*
X018172Y017694D01*
X018124Y017707D01*
X018077Y017723D01*
X018031Y017744D01*
X017987Y017768D01*
X017945Y017795D01*
X017905Y017825D01*
X017868Y017859D01*
X017834Y017896D01*
X017802Y017935D01*
X017774Y017976D01*
X017749Y018020D01*
X017728Y018065D01*
X017711Y018112D01*
X017697Y018160D01*
X017687Y018209D01*
X017681Y018259D01*
X017679Y018309D01*
X017679Y001773D02*
X017681Y001823D01*
X017687Y001873D01*
X017697Y001922D01*
X017711Y001970D01*
X017728Y002017D01*
X017749Y002062D01*
X017774Y002106D01*
X017802Y002147D01*
X017834Y002186D01*
X017868Y002223D01*
X017905Y002257D01*
X017945Y002287D01*
X017987Y002314D01*
X018031Y002338D01*
X018077Y002359D01*
X018124Y002375D01*
X018172Y002388D01*
X018222Y002397D01*
X018271Y002402D01*
X018322Y002403D01*
X018372Y002400D01*
X018421Y002393D01*
X018470Y002382D01*
X018518Y002367D01*
X018564Y002349D01*
X018609Y002327D01*
X018652Y002301D01*
X018693Y002272D01*
X018732Y002240D01*
X018768Y002205D01*
X018800Y002167D01*
X018830Y002127D01*
X018857Y002084D01*
X018880Y002040D01*
X018899Y001994D01*
X018915Y001946D01*
X018927Y001897D01*
X018935Y001848D01*
X018939Y001798D01*
X018939Y001748D01*
X018935Y001698D01*
X018927Y001649D01*
X018915Y001600D01*
X018899Y001552D01*
X018880Y001506D01*
X018857Y001462D01*
X018830Y001419D01*
X018800Y001379D01*
X018768Y001341D01*
X018732Y001306D01*
X018693Y001274D01*
X018652Y001245D01*
X018609Y001219D01*
X018564Y001197D01*
X018518Y001179D01*
X018470Y001164D01*
X018421Y001153D01*
X018372Y001146D01*
X018322Y001143D01*
X018271Y001144D01*
X018222Y001149D01*
X018172Y001158D01*
X018124Y001171D01*
X018077Y001187D01*
X018031Y001208D01*
X017987Y001232D01*
X017945Y001259D01*
X017905Y001289D01*
X017868Y001323D01*
X017834Y001360D01*
X017802Y001399D01*
X017774Y001440D01*
X017749Y001484D01*
X017728Y001529D01*
X017711Y001576D01*
X017697Y001624D01*
X017687Y001673D01*
X017681Y001723D01*
X017679Y001773D01*
D11*
X016931Y004332D02*
X016931Y007876D01*
X016931Y011419D02*
X016931Y015750D01*
X003151Y015946D02*
X003151Y009647D01*
X003151Y008663D02*
X003151Y004332D01*
D12*
X003610Y005022D02*
X004096Y005022D01*
X004335Y005386D02*
X004821Y005386D01*
X005060Y005143D02*
X005060Y004658D01*
X005060Y005022D02*
X005546Y005022D01*
X005546Y005143D02*
X005303Y005386D01*
X005060Y005143D01*
X005546Y005143D02*
X005546Y004658D01*
X005785Y004779D02*
X005907Y004658D01*
X006271Y004658D01*
X006271Y005386D01*
X005907Y005386D01*
X005785Y005264D01*
X005785Y005143D01*
X005907Y005022D01*
X006271Y005022D01*
X005907Y005022D02*
X005785Y004900D01*
X005785Y004779D01*
X005907Y005642D02*
X006271Y005642D01*
X006271Y006370D01*
X005907Y006370D01*
X005785Y006248D01*
X005785Y006127D01*
X005907Y006006D01*
X006271Y006006D01*
X005907Y006006D02*
X005785Y005884D01*
X005785Y005763D01*
X005907Y005642D01*
X005546Y005642D02*
X005546Y006127D01*
X005303Y006370D01*
X005060Y006127D01*
X005060Y005642D01*
X005060Y006006D02*
X005546Y006006D01*
X005666Y006626D02*
X005423Y006626D01*
X005302Y006747D01*
X005302Y006990D01*
X005545Y006990D01*
X005787Y006747D02*
X005666Y006626D01*
X005787Y006747D02*
X005787Y007233D01*
X005666Y007354D01*
X005423Y007354D01*
X005302Y007233D01*
X005062Y007354D02*
X004577Y006626D01*
X004577Y007354D01*
X004577Y007610D02*
X004577Y008338D01*
X004337Y007974D02*
X003852Y007974D01*
X004095Y007732D02*
X004095Y008217D01*
X004577Y007610D02*
X005062Y008338D01*
X005062Y007610D01*
X005062Y007354D02*
X005062Y006626D01*
X004821Y006370D02*
X004335Y006370D01*
X004578Y006370D02*
X004578Y005642D01*
X004578Y005386D02*
X004578Y004658D01*
X003853Y005763D02*
X003853Y006248D01*
X004096Y006006D02*
X003610Y006006D01*
X003852Y006990D02*
X004337Y006990D01*
X005302Y007732D02*
X005302Y007974D01*
X005545Y007974D01*
X005787Y007732D02*
X005666Y007610D01*
X005423Y007610D01*
X005302Y007732D01*
X005302Y008217D02*
X005423Y008338D01*
X005666Y008338D01*
X005787Y008217D01*
X005787Y007732D01*
X006028Y007610D02*
X006271Y007610D01*
X006149Y007610D02*
X006149Y008338D01*
X006028Y008338D02*
X006271Y008338D01*
X006271Y007354D02*
X006028Y007354D01*
X006149Y007354D02*
X006149Y006626D01*
X006028Y006626D02*
X006271Y006626D01*
X007082Y003909D02*
X007082Y003181D01*
X006718Y003181D01*
X006596Y003303D01*
X006596Y003545D01*
X006718Y003667D01*
X007082Y003667D01*
X007564Y003909D02*
X007564Y003181D01*
X007807Y003181D02*
X007321Y003181D01*
X007807Y003667D02*
X007564Y003909D01*
X008048Y003303D02*
X008048Y003181D01*
X008169Y003181D01*
X008169Y003303D01*
X008048Y003303D01*
X008409Y003667D02*
X008651Y003181D01*
X008894Y003667D01*
X009134Y003545D02*
X009134Y003424D01*
X009619Y003424D01*
X009619Y003303D02*
X009619Y003545D01*
X009498Y003667D01*
X009255Y003667D01*
X009134Y003545D01*
X009255Y003181D02*
X009498Y003181D01*
X009619Y003303D01*
X009859Y003667D02*
X009981Y003667D01*
X010223Y003424D01*
X010223Y003181D02*
X010223Y003667D01*
X011188Y003909D02*
X011188Y003303D01*
X011309Y003181D01*
X011552Y003181D01*
X011673Y003303D01*
X011673Y003909D01*
X011913Y003788D02*
X012034Y003909D01*
X012277Y003909D01*
X012398Y003788D01*
X012398Y003303D01*
X012277Y003181D01*
X012034Y003181D01*
X011913Y003303D01*
X012638Y003181D02*
X013123Y003181D01*
X013123Y003909D01*
X012638Y003909D01*
X012881Y003545D02*
X013123Y003545D01*
X013485Y003667D02*
X013485Y003181D01*
X013364Y003181D02*
X013607Y003181D01*
X013847Y003181D02*
X013847Y003545D01*
X013968Y003667D01*
X014332Y003667D01*
X014332Y003181D01*
X014573Y003181D02*
X014815Y003181D01*
X014694Y003181D02*
X014694Y003667D01*
X014815Y003667D01*
X015055Y003545D02*
X015055Y003181D01*
X015298Y003181D02*
X015298Y003545D01*
X015176Y003667D01*
X015055Y003545D01*
X015298Y003545D02*
X015419Y003667D01*
X015540Y003667D01*
X015540Y003181D01*
X015419Y002485D02*
X015176Y002485D01*
X015055Y002364D01*
X015055Y002243D01*
X015540Y002243D01*
X015540Y002364D02*
X015419Y002485D01*
X015540Y002364D02*
X015540Y002121D01*
X015419Y002000D01*
X015176Y002000D01*
X014815Y002000D02*
X014815Y002485D01*
X014451Y002485D01*
X014330Y002364D01*
X014330Y002000D01*
X014090Y002121D02*
X013969Y002000D01*
X013605Y002000D01*
X013605Y001879D02*
X013605Y002485D01*
X013969Y002485D01*
X014090Y002364D01*
X014090Y002121D01*
X013848Y001757D02*
X013726Y001757D01*
X013605Y001879D01*
X013365Y002000D02*
X013122Y002000D01*
X013244Y002000D02*
X013244Y002485D01*
X013365Y002485D01*
X013244Y002728D02*
X013244Y002849D01*
X012882Y002485D02*
X012518Y002485D01*
X012396Y002364D01*
X012396Y002000D01*
X012157Y002121D02*
X012157Y002364D01*
X012035Y002485D01*
X011793Y002485D01*
X011671Y002364D01*
X011671Y002243D01*
X012157Y002243D01*
X012157Y002121D02*
X012035Y002000D01*
X011793Y002000D01*
X011673Y001668D02*
X011673Y001547D01*
X011673Y001304D02*
X011673Y000819D01*
X011794Y000819D02*
X011552Y000819D01*
X011311Y000819D02*
X011068Y000819D01*
X011190Y000819D02*
X011190Y001547D01*
X011311Y001547D01*
X011673Y001304D02*
X011794Y001304D01*
X012034Y001304D02*
X012398Y001062D01*
X012034Y000819D01*
X012398Y000819D02*
X012398Y001547D01*
X012882Y002000D02*
X012882Y002485D01*
X013849Y001547D02*
X013849Y000819D01*
X013849Y001183D02*
X013727Y001304D01*
X013484Y001304D01*
X013363Y001183D01*
X013363Y000819D01*
X014089Y000819D02*
X014211Y000940D01*
X014211Y001426D01*
X014332Y001304D02*
X014089Y001304D01*
X014573Y000819D02*
X014815Y000819D01*
X014694Y000819D02*
X014694Y001304D01*
X014815Y001304D01*
X015055Y001304D02*
X015055Y000940D01*
X015176Y000819D01*
X015298Y000940D01*
X015419Y000819D01*
X015540Y000940D01*
X015540Y001304D01*
X014694Y001547D02*
X014694Y001668D01*
X013607Y003667D02*
X013485Y003667D01*
X013485Y003909D02*
X013485Y004031D01*
X013689Y004658D02*
X013203Y004658D01*
X013446Y005022D02*
X013689Y005022D01*
X013928Y004900D02*
X013928Y004779D01*
X014050Y004658D01*
X014292Y004658D01*
X014414Y004779D01*
X014653Y004658D02*
X015139Y004658D01*
X015139Y005386D01*
X015378Y005386D02*
X015378Y004779D01*
X015500Y004658D01*
X015742Y004658D01*
X015864Y004779D01*
X015864Y005386D01*
X016103Y005264D02*
X016103Y005022D01*
X016225Y004900D01*
X016589Y004900D01*
X016589Y004658D02*
X016589Y005386D01*
X016225Y005386D01*
X016103Y005264D01*
X015501Y006104D02*
X015016Y006104D01*
X014776Y006347D02*
X014655Y006468D01*
X014412Y006468D01*
X014291Y006347D01*
X014291Y006226D01*
X014412Y006104D01*
X014291Y005983D01*
X014291Y005862D01*
X014412Y005740D01*
X014655Y005740D01*
X014776Y005862D01*
X014534Y006104D02*
X014412Y006104D01*
X014051Y005862D02*
X013930Y005862D01*
X013930Y005740D01*
X014051Y005740D01*
X014051Y005862D01*
X013689Y005862D02*
X013567Y005740D01*
X013325Y005740D01*
X013203Y005862D01*
X013203Y005983D01*
X013325Y006104D01*
X013446Y006104D01*
X013325Y006104D02*
X013203Y006226D01*
X013203Y006347D01*
X013325Y006468D01*
X013567Y006468D01*
X013689Y006347D01*
X013689Y006823D02*
X013325Y006823D01*
X013203Y006944D01*
X013203Y007430D01*
X013325Y007551D01*
X013689Y007551D01*
X013689Y006823D01*
X013928Y006823D02*
X013928Y007551D01*
X014414Y007551D02*
X013928Y006823D01*
X014414Y006823D02*
X014414Y007551D01*
X014653Y007430D02*
X014775Y007551D01*
X015017Y007551D01*
X015139Y007430D01*
X015139Y006944D01*
X015017Y006823D01*
X014775Y006823D01*
X014653Y006944D01*
X014653Y007187D01*
X014896Y007187D01*
X015259Y006347D02*
X015259Y005862D01*
X014414Y005264D02*
X014414Y005143D01*
X014292Y005022D01*
X014050Y005022D01*
X013928Y004900D01*
X013928Y005264D02*
X014050Y005386D01*
X014292Y005386D01*
X014414Y005264D01*
X013689Y005386D02*
X013689Y004658D01*
X013689Y005386D02*
X013203Y005386D01*
X014694Y004031D02*
X014694Y003909D01*
X010707Y002485D02*
X010707Y002000D01*
X010464Y002000D02*
X010464Y002364D01*
X010343Y002485D01*
X010221Y002364D01*
X010221Y002000D01*
X009982Y002121D02*
X009860Y002000D01*
X009618Y002000D01*
X009496Y002121D01*
X009496Y002364D01*
X009618Y002485D01*
X009860Y002485D01*
X009982Y002364D01*
X009982Y002121D01*
X010464Y002364D02*
X010585Y002485D01*
X010707Y002485D01*
X010706Y001547D02*
X010706Y000819D01*
X010585Y000819D02*
X010828Y000819D01*
X010828Y001547D02*
X010706Y001547D01*
X009619Y001183D02*
X009498Y001304D01*
X009134Y001304D01*
X008894Y001304D02*
X008894Y000940D01*
X008773Y000819D01*
X008651Y000940D01*
X008530Y000819D01*
X008409Y000940D01*
X008409Y001304D01*
X008169Y001304D02*
X008048Y001304D01*
X008048Y000819D01*
X008169Y000819D02*
X007926Y000819D01*
X007564Y000940D02*
X007443Y000819D01*
X007564Y000940D02*
X007564Y001426D01*
X007443Y001304D02*
X007686Y001304D01*
X008048Y001547D02*
X008048Y001668D01*
X008289Y002000D02*
X008532Y002000D01*
X008410Y002000D02*
X008410Y002485D01*
X008532Y002485D01*
X008771Y002364D02*
X008771Y002000D01*
X008771Y002364D02*
X008893Y002485D01*
X009257Y002485D01*
X009257Y002000D01*
X009619Y001183D02*
X009498Y001062D01*
X009255Y001062D01*
X009134Y000940D01*
X009255Y000819D01*
X009619Y000819D01*
X007927Y002121D02*
X007927Y002607D01*
X008048Y002485D02*
X007806Y002485D01*
X007565Y002364D02*
X007565Y002121D01*
X007444Y002000D01*
X007201Y002000D01*
X007080Y002121D01*
X007080Y002364D01*
X007201Y002485D01*
X007444Y002485D01*
X007565Y002364D01*
X007927Y002121D02*
X007806Y002000D01*
X007081Y001304D02*
X007202Y001183D01*
X007202Y000940D01*
X007081Y000819D01*
X006717Y000819D01*
X006477Y000819D02*
X006477Y001547D01*
X006356Y001304D02*
X006113Y001304D01*
X005992Y001183D01*
X005992Y000819D01*
X006477Y001183D02*
X006356Y001304D01*
X006717Y001304D02*
X007081Y001304D01*
X006840Y002000D02*
X006840Y002485D01*
X006840Y002243D02*
X006597Y002485D01*
X006476Y002485D01*
X006236Y002485D02*
X006114Y002485D01*
X006114Y002000D01*
X005993Y002000D02*
X006236Y002000D01*
X005752Y002000D02*
X005752Y002485D01*
X005388Y002485D01*
X005267Y002364D01*
X005267Y002000D01*
X005027Y002121D02*
X004906Y002000D01*
X004542Y002000D01*
X004542Y001879D02*
X004542Y002485D01*
X004906Y002485D01*
X005027Y002364D01*
X005027Y002121D01*
X004785Y001757D02*
X004663Y001757D01*
X004542Y001879D01*
X006114Y002728D02*
X006114Y002849D01*
X008410Y002849D02*
X008410Y002728D01*
X008315Y009973D02*
X008072Y009973D01*
X007951Y010094D01*
X007951Y010215D01*
X008072Y010337D01*
X008315Y010337D01*
X008436Y010458D01*
X008436Y010579D01*
X008315Y010701D01*
X008072Y010701D01*
X007951Y010579D01*
X007711Y010701D02*
X007226Y010701D01*
X006986Y010458D02*
X006743Y010701D01*
X006501Y010458D01*
X006501Y009973D01*
X006261Y009973D02*
X006261Y010701D01*
X005897Y010701D01*
X005776Y010579D01*
X005776Y010337D01*
X005897Y010215D01*
X006261Y010215D01*
X006501Y010337D02*
X006986Y010337D01*
X006986Y010458D02*
X006986Y009973D01*
X007468Y009973D02*
X007468Y010701D01*
X007711Y010957D02*
X007711Y011685D01*
X007347Y011685D01*
X007226Y011563D01*
X007226Y011321D01*
X007347Y011199D01*
X007711Y011199D01*
X007951Y011321D02*
X008072Y011199D01*
X008436Y011199D01*
X008436Y010957D02*
X008436Y011685D01*
X008072Y011685D01*
X007951Y011563D01*
X007951Y011321D01*
X008193Y011199D02*
X007951Y010957D01*
X007951Y011941D02*
X007951Y012426D01*
X008193Y012669D01*
X008436Y012426D01*
X008436Y011941D01*
X008436Y012305D02*
X007951Y012305D01*
X007711Y012062D02*
X007590Y011941D01*
X007347Y011941D01*
X007226Y012062D01*
X007226Y012305D01*
X007468Y012305D01*
X007711Y012548D02*
X007711Y012062D01*
X007711Y012548D02*
X007590Y012669D01*
X007347Y012669D01*
X007226Y012548D01*
X006986Y012669D02*
X006501Y011941D01*
X006501Y012669D01*
X006503Y012804D02*
X006017Y012804D01*
X005897Y012669D02*
X006261Y012669D01*
X006261Y011941D01*
X005897Y011941D01*
X005776Y012062D01*
X005776Y012548D01*
X005897Y012669D01*
X005778Y012925D02*
X005778Y013653D01*
X005414Y013653D01*
X005292Y013532D01*
X005292Y013289D01*
X005414Y013168D01*
X005778Y013168D01*
X006261Y013910D02*
X006261Y014638D01*
X005897Y014638D01*
X005776Y014516D01*
X005776Y014274D01*
X005897Y014152D01*
X006261Y014152D01*
X006501Y013910D02*
X006501Y014638D01*
X006743Y014395D01*
X006986Y014638D01*
X006986Y013910D01*
X007226Y013910D02*
X007711Y013910D01*
X007711Y014638D01*
X007226Y014638D01*
X006865Y014894D02*
X006622Y014894D01*
X006501Y015015D01*
X006261Y015015D02*
X006140Y014894D01*
X005897Y014894D01*
X005776Y015015D01*
X005776Y015500D02*
X005897Y015622D01*
X006140Y015622D01*
X006261Y015500D01*
X006261Y015015D01*
X006501Y015500D02*
X006622Y015622D01*
X006865Y015622D01*
X006986Y015500D01*
X006986Y015015D01*
X006865Y014894D01*
X007226Y015136D02*
X007226Y015622D01*
X007711Y015622D02*
X007711Y015136D01*
X007468Y014894D01*
X007226Y015136D01*
X007951Y015258D02*
X008436Y015258D01*
X008436Y015379D02*
X008193Y015622D01*
X007951Y015379D01*
X007951Y014894D01*
X007951Y014638D02*
X008436Y014638D01*
X008436Y014894D02*
X008436Y015379D01*
X008193Y014638D02*
X008193Y013910D01*
X008072Y013653D02*
X007951Y013532D01*
X007951Y013047D01*
X008072Y012925D01*
X008315Y012925D01*
X008436Y013047D01*
X008436Y013532D01*
X008315Y013653D01*
X008072Y013653D01*
X007711Y013653D02*
X007468Y013653D01*
X007590Y013653D02*
X007590Y012925D01*
X007711Y012925D02*
X007468Y012925D01*
X007228Y012925D02*
X006742Y012925D01*
X006986Y012669D02*
X006986Y011941D01*
X006986Y011685D02*
X006743Y011442D01*
X006501Y011685D01*
X006501Y010957D01*
X006261Y010835D02*
X005776Y010835D01*
X005536Y010957D02*
X005293Y010957D01*
X005415Y010957D02*
X005415Y011685D01*
X005536Y011685D02*
X005293Y011685D01*
X005053Y011685D02*
X004567Y010957D01*
X004567Y011685D01*
X005053Y011685D02*
X005053Y010957D01*
X005051Y010701D02*
X005536Y010701D01*
X005293Y010701D02*
X005293Y009973D01*
X005776Y009973D02*
X006018Y010215D01*
X006986Y010957D02*
X006986Y011685D01*
X007228Y012925D02*
X007228Y013653D01*
X007468Y014274D02*
X007711Y014274D01*
X004811Y010701D02*
X004326Y010701D01*
X004086Y010701D02*
X003722Y010701D01*
X003601Y010579D01*
X003601Y010337D01*
X003722Y010215D01*
X004086Y010215D01*
X004086Y009973D02*
X004086Y010701D01*
X003843Y010215D02*
X003601Y009973D01*
X004326Y009973D02*
X004811Y009973D01*
X004811Y010701D01*
X004811Y010337D02*
X004568Y010337D01*
X008315Y009973D02*
X008436Y010094D01*
X014189Y011744D02*
X014431Y011744D01*
X014310Y011744D02*
X014310Y012230D01*
X014431Y012230D01*
X014310Y012472D02*
X014310Y012594D01*
X014309Y012728D02*
X014188Y012850D01*
X014188Y013335D01*
X014309Y013456D01*
X014673Y013456D01*
X014673Y012728D01*
X014309Y012728D01*
X014671Y012351D02*
X014792Y012472D01*
X015035Y012472D01*
X015156Y012351D01*
X015156Y011866D01*
X015035Y011744D01*
X014792Y011744D01*
X014671Y011866D01*
X015396Y011866D02*
X015517Y011744D01*
X015760Y011744D01*
X015881Y011866D01*
X015881Y012351D01*
X015760Y012472D01*
X015517Y012472D01*
X015396Y012351D01*
X015398Y012728D02*
X014913Y013456D01*
X014913Y013713D02*
X015398Y014441D01*
X015396Y014697D02*
X015396Y015425D01*
X015156Y015425D02*
X014792Y015425D01*
X014671Y015304D01*
X014671Y014818D01*
X014792Y014697D01*
X015156Y014697D01*
X015156Y015425D01*
X015881Y015425D02*
X015396Y014697D01*
X015759Y014441D02*
X015638Y014319D01*
X015638Y014077D01*
X015759Y013955D01*
X016123Y013955D01*
X016123Y013713D02*
X016123Y014441D01*
X015759Y014441D01*
X015881Y014697D02*
X015881Y015425D01*
X016121Y015304D02*
X016242Y015425D01*
X016485Y015425D01*
X016606Y015304D01*
X016606Y014818D01*
X016485Y014697D01*
X016242Y014697D01*
X016121Y014818D01*
X016121Y015061D01*
X016364Y015061D01*
X015880Y013955D02*
X015638Y013713D01*
X015398Y013713D02*
X014913Y014441D01*
X014673Y014441D02*
X014309Y014441D01*
X014188Y014319D01*
X014188Y013834D01*
X014309Y013713D01*
X014673Y013713D01*
X014673Y014441D01*
X014431Y014697D02*
X014189Y014697D01*
X014310Y014697D02*
X014310Y015182D01*
X014431Y015182D01*
X014310Y015425D02*
X014310Y015546D01*
X015398Y013456D02*
X014913Y012728D01*
X015638Y013456D02*
X016123Y013456D01*
X015880Y013456D02*
X015880Y012728D01*
X016121Y012472D02*
X016121Y011987D01*
X016364Y011744D01*
X016606Y011987D01*
X016606Y012472D01*
M02*
