G75*
%MOIN*%
%OFA0B0*%
%FSLAX24Y24*%
%IPPOS*%
%LPD*%
%AMOC8*
5,1,8,0,0,1.08239X$1,22.5*
%
%ADD10C,0.0000*%
%ADD11R,0.0280X0.0910*%
%ADD12R,0.0906X0.0276*%
%ADD13R,0.0555X0.0555*%
%ADD14C,0.0555*%
%ADD15R,0.0473X0.0434*%
%ADD16R,0.0434X0.0473*%
%ADD17R,0.0591X0.0434*%
%ADD18R,0.0631X0.0552*%
%ADD19R,0.0512X0.0276*%
%ADD20R,0.0434X0.0591*%
%ADD21R,0.0552X0.0631*%
%ADD22R,0.0237X0.0591*%
%ADD23R,0.1694X0.1024*%
%ADD24C,0.1300*%
%ADD25R,0.0119X0.0434*%
%ADD26R,0.0434X0.0119*%
%ADD27R,0.0197X0.0591*%
%ADD28C,0.0375*%
%ADD29R,0.0787X0.0669*%
%ADD30R,0.1063X0.0669*%
%ADD31R,0.0640X0.1040*%
%ADD32R,0.0540X0.0290*%
%ADD33R,0.0355X0.0355*%
%ADD34R,0.0197X0.0867*%
%ADD35C,0.0440*%
%ADD36R,0.0316X0.0591*%
%ADD37OC8,0.0780*%
D10*
X001183Y001347D02*
X018899Y001347D01*
X018961Y001349D01*
X019022Y001355D01*
X019083Y001364D01*
X019144Y001378D01*
X019203Y001395D01*
X019261Y001416D01*
X019318Y001441D01*
X019373Y001469D01*
X019426Y001500D01*
X019477Y001535D01*
X019526Y001573D01*
X019573Y001614D01*
X019616Y001657D01*
X019657Y001704D01*
X019695Y001753D01*
X019730Y001804D01*
X019761Y001857D01*
X019789Y001912D01*
X019814Y001969D01*
X019835Y002027D01*
X019852Y002086D01*
X019866Y002147D01*
X019875Y002208D01*
X019881Y002269D01*
X019883Y002331D01*
X019883Y020048D01*
X019881Y020110D01*
X019875Y020171D01*
X019866Y020232D01*
X019852Y020293D01*
X019835Y020352D01*
X019814Y020410D01*
X019789Y020467D01*
X019761Y020522D01*
X019730Y020575D01*
X019695Y020626D01*
X019657Y020675D01*
X019616Y020722D01*
X019573Y020765D01*
X019526Y020806D01*
X019477Y020844D01*
X019426Y020879D01*
X019373Y020910D01*
X019318Y020938D01*
X019261Y020963D01*
X019203Y020984D01*
X019144Y021001D01*
X019083Y021015D01*
X019022Y021024D01*
X018961Y021030D01*
X018899Y021032D01*
X001183Y021032D01*
X001121Y021030D01*
X001060Y021024D01*
X000999Y021015D01*
X000938Y021001D01*
X000879Y020984D01*
X000821Y020963D01*
X000764Y020938D01*
X000709Y020910D01*
X000656Y020879D01*
X000605Y020844D01*
X000556Y020806D01*
X000509Y020765D01*
X000466Y020722D01*
X000425Y020675D01*
X000387Y020626D01*
X000352Y020575D01*
X000321Y020522D01*
X000293Y020467D01*
X000268Y020410D01*
X000247Y020352D01*
X000230Y020293D01*
X000216Y020232D01*
X000207Y020171D01*
X000201Y020110D01*
X000199Y020048D01*
X000198Y020048D02*
X000198Y002331D01*
X000199Y002331D02*
X000201Y002269D01*
X000207Y002208D01*
X000216Y002147D01*
X000230Y002086D01*
X000247Y002027D01*
X000268Y001969D01*
X000293Y001912D01*
X000321Y001857D01*
X000352Y001804D01*
X000387Y001753D01*
X000425Y001704D01*
X000466Y001657D01*
X000509Y001614D01*
X000556Y001573D01*
X000605Y001535D01*
X000656Y001500D01*
X000709Y001469D01*
X000764Y001441D01*
X000821Y001416D01*
X000879Y001395D01*
X000938Y001378D01*
X000999Y001364D01*
X001060Y001355D01*
X001121Y001349D01*
X001183Y001347D01*
X001143Y002922D02*
X001145Y002972D01*
X001151Y003022D01*
X001161Y003071D01*
X001175Y003119D01*
X001192Y003166D01*
X001213Y003211D01*
X001238Y003255D01*
X001266Y003296D01*
X001298Y003335D01*
X001332Y003372D01*
X001369Y003406D01*
X001409Y003436D01*
X001451Y003463D01*
X001495Y003487D01*
X001541Y003508D01*
X001588Y003524D01*
X001636Y003537D01*
X001686Y003546D01*
X001735Y003551D01*
X001786Y003552D01*
X001836Y003549D01*
X001885Y003542D01*
X001934Y003531D01*
X001982Y003516D01*
X002028Y003498D01*
X002073Y003476D01*
X002116Y003450D01*
X002157Y003421D01*
X002196Y003389D01*
X002232Y003354D01*
X002264Y003316D01*
X002294Y003276D01*
X002321Y003233D01*
X002344Y003189D01*
X002363Y003143D01*
X002379Y003095D01*
X002391Y003046D01*
X002399Y002997D01*
X002403Y002947D01*
X002403Y002897D01*
X002399Y002847D01*
X002391Y002798D01*
X002379Y002749D01*
X002363Y002701D01*
X002344Y002655D01*
X002321Y002611D01*
X002294Y002568D01*
X002264Y002528D01*
X002232Y002490D01*
X002196Y002455D01*
X002157Y002423D01*
X002116Y002394D01*
X002073Y002368D01*
X002028Y002346D01*
X001982Y002328D01*
X001934Y002313D01*
X001885Y002302D01*
X001836Y002295D01*
X001786Y002292D01*
X001735Y002293D01*
X001686Y002298D01*
X001636Y002307D01*
X001588Y002320D01*
X001541Y002336D01*
X001495Y002357D01*
X001451Y002381D01*
X001409Y002408D01*
X001369Y002438D01*
X001332Y002472D01*
X001298Y002509D01*
X001266Y002548D01*
X001238Y002589D01*
X001213Y002633D01*
X001192Y002678D01*
X001175Y002725D01*
X001161Y002773D01*
X001151Y002822D01*
X001145Y002872D01*
X001143Y002922D01*
X013457Y003001D02*
X013459Y003026D01*
X013465Y003051D01*
X013474Y003075D01*
X013487Y003097D01*
X013504Y003117D01*
X013523Y003134D01*
X013544Y003148D01*
X013568Y003158D01*
X013592Y003165D01*
X013618Y003168D01*
X013643Y003167D01*
X013668Y003162D01*
X013692Y003153D01*
X013715Y003141D01*
X013735Y003126D01*
X013753Y003107D01*
X013768Y003086D01*
X013779Y003063D01*
X013787Y003039D01*
X013791Y003014D01*
X013791Y002988D01*
X013787Y002963D01*
X013779Y002939D01*
X013768Y002916D01*
X013753Y002895D01*
X013735Y002876D01*
X013715Y002861D01*
X013692Y002849D01*
X013668Y002840D01*
X013643Y002835D01*
X013618Y002834D01*
X013592Y002837D01*
X013568Y002844D01*
X013544Y002854D01*
X013523Y002868D01*
X013504Y002885D01*
X013487Y002905D01*
X013474Y002927D01*
X013465Y002951D01*
X013459Y002976D01*
X013457Y003001D01*
X014953Y003001D02*
X014955Y003026D01*
X014961Y003051D01*
X014970Y003075D01*
X014983Y003097D01*
X015000Y003117D01*
X015019Y003134D01*
X015040Y003148D01*
X015064Y003158D01*
X015088Y003165D01*
X015114Y003168D01*
X015139Y003167D01*
X015164Y003162D01*
X015188Y003153D01*
X015211Y003141D01*
X015231Y003126D01*
X015249Y003107D01*
X015264Y003086D01*
X015275Y003063D01*
X015283Y003039D01*
X015287Y003014D01*
X015287Y002988D01*
X015283Y002963D01*
X015275Y002939D01*
X015264Y002916D01*
X015249Y002895D01*
X015231Y002876D01*
X015211Y002861D01*
X015188Y002849D01*
X015164Y002840D01*
X015139Y002835D01*
X015114Y002834D01*
X015088Y002837D01*
X015064Y002844D01*
X015040Y002854D01*
X015019Y002868D01*
X015000Y002885D01*
X014983Y002905D01*
X014970Y002927D01*
X014961Y002951D01*
X014955Y002976D01*
X014953Y003001D01*
X017679Y002922D02*
X017681Y002972D01*
X017687Y003022D01*
X017697Y003071D01*
X017711Y003119D01*
X017728Y003166D01*
X017749Y003211D01*
X017774Y003255D01*
X017802Y003296D01*
X017834Y003335D01*
X017868Y003372D01*
X017905Y003406D01*
X017945Y003436D01*
X017987Y003463D01*
X018031Y003487D01*
X018077Y003508D01*
X018124Y003524D01*
X018172Y003537D01*
X018222Y003546D01*
X018271Y003551D01*
X018322Y003552D01*
X018372Y003549D01*
X018421Y003542D01*
X018470Y003531D01*
X018518Y003516D01*
X018564Y003498D01*
X018609Y003476D01*
X018652Y003450D01*
X018693Y003421D01*
X018732Y003389D01*
X018768Y003354D01*
X018800Y003316D01*
X018830Y003276D01*
X018857Y003233D01*
X018880Y003189D01*
X018899Y003143D01*
X018915Y003095D01*
X018927Y003046D01*
X018935Y002997D01*
X018939Y002947D01*
X018939Y002897D01*
X018935Y002847D01*
X018927Y002798D01*
X018915Y002749D01*
X018899Y002701D01*
X018880Y002655D01*
X018857Y002611D01*
X018830Y002568D01*
X018800Y002528D01*
X018768Y002490D01*
X018732Y002455D01*
X018693Y002423D01*
X018652Y002394D01*
X018609Y002368D01*
X018564Y002346D01*
X018518Y002328D01*
X018470Y002313D01*
X018421Y002302D01*
X018372Y002295D01*
X018322Y002292D01*
X018271Y002293D01*
X018222Y002298D01*
X018172Y002307D01*
X018124Y002320D01*
X018077Y002336D01*
X018031Y002357D01*
X017987Y002381D01*
X017945Y002408D01*
X017905Y002438D01*
X017868Y002472D01*
X017834Y002509D01*
X017802Y002548D01*
X017774Y002589D01*
X017749Y002633D01*
X017728Y002678D01*
X017711Y002725D01*
X017697Y002773D01*
X017687Y002822D01*
X017681Y002872D01*
X017679Y002922D01*
X017679Y019457D02*
X017681Y019507D01*
X017687Y019557D01*
X017697Y019606D01*
X017711Y019654D01*
X017728Y019701D01*
X017749Y019746D01*
X017774Y019790D01*
X017802Y019831D01*
X017834Y019870D01*
X017868Y019907D01*
X017905Y019941D01*
X017945Y019971D01*
X017987Y019998D01*
X018031Y020022D01*
X018077Y020043D01*
X018124Y020059D01*
X018172Y020072D01*
X018222Y020081D01*
X018271Y020086D01*
X018322Y020087D01*
X018372Y020084D01*
X018421Y020077D01*
X018470Y020066D01*
X018518Y020051D01*
X018564Y020033D01*
X018609Y020011D01*
X018652Y019985D01*
X018693Y019956D01*
X018732Y019924D01*
X018768Y019889D01*
X018800Y019851D01*
X018830Y019811D01*
X018857Y019768D01*
X018880Y019724D01*
X018899Y019678D01*
X018915Y019630D01*
X018927Y019581D01*
X018935Y019532D01*
X018939Y019482D01*
X018939Y019432D01*
X018935Y019382D01*
X018927Y019333D01*
X018915Y019284D01*
X018899Y019236D01*
X018880Y019190D01*
X018857Y019146D01*
X018830Y019103D01*
X018800Y019063D01*
X018768Y019025D01*
X018732Y018990D01*
X018693Y018958D01*
X018652Y018929D01*
X018609Y018903D01*
X018564Y018881D01*
X018518Y018863D01*
X018470Y018848D01*
X018421Y018837D01*
X018372Y018830D01*
X018322Y018827D01*
X018271Y018828D01*
X018222Y018833D01*
X018172Y018842D01*
X018124Y018855D01*
X018077Y018871D01*
X018031Y018892D01*
X017987Y018916D01*
X017945Y018943D01*
X017905Y018973D01*
X017868Y019007D01*
X017834Y019044D01*
X017802Y019083D01*
X017774Y019124D01*
X017749Y019168D01*
X017728Y019213D01*
X017711Y019260D01*
X017697Y019308D01*
X017687Y019357D01*
X017681Y019407D01*
X017679Y019457D01*
X001143Y019457D02*
X001145Y019507D01*
X001151Y019557D01*
X001161Y019606D01*
X001175Y019654D01*
X001192Y019701D01*
X001213Y019746D01*
X001238Y019790D01*
X001266Y019831D01*
X001298Y019870D01*
X001332Y019907D01*
X001369Y019941D01*
X001409Y019971D01*
X001451Y019998D01*
X001495Y020022D01*
X001541Y020043D01*
X001588Y020059D01*
X001636Y020072D01*
X001686Y020081D01*
X001735Y020086D01*
X001786Y020087D01*
X001836Y020084D01*
X001885Y020077D01*
X001934Y020066D01*
X001982Y020051D01*
X002028Y020033D01*
X002073Y020011D01*
X002116Y019985D01*
X002157Y019956D01*
X002196Y019924D01*
X002232Y019889D01*
X002264Y019851D01*
X002294Y019811D01*
X002321Y019768D01*
X002344Y019724D01*
X002363Y019678D01*
X002379Y019630D01*
X002391Y019581D01*
X002399Y019532D01*
X002403Y019482D01*
X002403Y019432D01*
X002399Y019382D01*
X002391Y019333D01*
X002379Y019284D01*
X002363Y019236D01*
X002344Y019190D01*
X002321Y019146D01*
X002294Y019103D01*
X002264Y019063D01*
X002232Y019025D01*
X002196Y018990D01*
X002157Y018958D01*
X002116Y018929D01*
X002073Y018903D01*
X002028Y018881D01*
X001982Y018863D01*
X001934Y018848D01*
X001885Y018837D01*
X001836Y018830D01*
X001786Y018827D01*
X001735Y018828D01*
X001686Y018833D01*
X001636Y018842D01*
X001588Y018855D01*
X001541Y018871D01*
X001495Y018892D01*
X001451Y018916D01*
X001409Y018943D01*
X001369Y018973D01*
X001332Y019007D01*
X001298Y019044D01*
X001266Y019083D01*
X001238Y019124D01*
X001213Y019168D01*
X001192Y019213D01*
X001175Y019260D01*
X001161Y019308D01*
X001151Y019357D01*
X001145Y019407D01*
X001143Y019457D01*
D11*
X010472Y010344D03*
X010972Y010344D03*
X011472Y010344D03*
X011972Y010344D03*
X011972Y007694D03*
X011472Y007694D03*
X010972Y007694D03*
X010472Y007694D03*
D12*
X014135Y013983D03*
X014135Y014483D03*
X014135Y014983D03*
X014135Y015483D03*
X016183Y015483D03*
X016183Y014983D03*
X016183Y014483D03*
X016183Y013983D03*
D13*
X018309Y013233D03*
X001773Y016446D03*
X001773Y009146D03*
D14*
X001773Y008146D03*
X001773Y007146D03*
X001773Y006146D03*
X001773Y011446D03*
X001773Y012446D03*
X001773Y013446D03*
X001773Y014446D03*
X001773Y015446D03*
X018309Y015233D03*
X018309Y016233D03*
X018309Y014233D03*
D15*
X016478Y016308D03*
X015809Y016308D03*
X014509Y016308D03*
X013840Y016308D03*
X013328Y016505D03*
X012659Y016505D03*
X011360Y018276D03*
X010691Y018276D03*
X008013Y017489D03*
X007344Y017489D03*
X007226Y016702D03*
X006557Y016702D03*
X006301Y018532D03*
X006301Y019202D03*
X006301Y019713D03*
X006301Y020383D03*
X005513Y019202D03*
X005513Y018532D03*
X005120Y013493D03*
X004529Y013493D03*
X004529Y012824D03*
X005120Y012824D03*
X005317Y011918D03*
X005317Y011249D03*
X006163Y009812D03*
X006832Y009812D03*
X008525Y011387D03*
X009194Y011387D03*
X009194Y012174D03*
X008525Y012174D03*
X003742Y012824D03*
X003742Y013493D03*
X003939Y005422D03*
X003939Y004753D03*
X004726Y004753D03*
X004726Y005422D03*
X005513Y005422D03*
X005513Y004753D03*
X014962Y011052D03*
X014962Y011721D03*
D16*
X014175Y011721D03*
X014175Y011052D03*
X014175Y010540D03*
X014175Y009871D03*
X013387Y009162D03*
X013387Y008493D03*
X009844Y009083D03*
X009844Y009753D03*
X005907Y012824D03*
X005907Y013493D03*
X005317Y014398D03*
X005317Y015068D03*
X005317Y015973D03*
X005317Y016643D03*
X008072Y016643D03*
X008072Y015973D03*
X012009Y017745D03*
X012009Y018414D03*
X005513Y019713D03*
X005513Y020383D03*
X014431Y004103D03*
X015100Y004103D03*
D17*
X004569Y011209D03*
X004569Y011957D03*
X003702Y011583D03*
D18*
X003742Y014398D03*
X003742Y015068D03*
X004529Y015068D03*
X004529Y014398D03*
X004529Y015973D03*
X004529Y016643D03*
X003742Y016643D03*
X003742Y015973D03*
X007482Y007981D03*
X007482Y007312D03*
X013387Y009871D03*
X013387Y010540D03*
D19*
X007679Y012587D03*
X007679Y012961D03*
X007679Y013335D03*
X006773Y013335D03*
X006773Y012961D03*
X006773Y012587D03*
X006380Y015146D03*
X006380Y015520D03*
X006380Y015894D03*
X007285Y015894D03*
X007285Y015520D03*
X007285Y015146D03*
D20*
X006301Y008080D03*
X006675Y007213D03*
X005927Y007213D03*
X008289Y007213D03*
X009037Y007213D03*
X008663Y008080D03*
D21*
X008407Y009024D03*
X007738Y009024D03*
X007738Y009812D03*
X008407Y009812D03*
X006832Y009024D03*
X006163Y009024D03*
X008328Y006465D03*
X008998Y006465D03*
D22*
X005317Y006623D03*
X005002Y006623D03*
X004687Y006623D03*
X004372Y006623D03*
X004057Y006623D03*
X003742Y006623D03*
X003742Y008670D03*
X004057Y008670D03*
X004372Y008670D03*
X004687Y008670D03*
X005002Y008670D03*
X005317Y008670D03*
D23*
X004529Y007646D03*
D24*
X001773Y002922D03*
X018309Y002922D03*
X018309Y019457D03*
X001773Y019457D03*
D25*
X009549Y016603D03*
X009746Y016603D03*
X009943Y016603D03*
X010139Y016603D03*
X010336Y016603D03*
X010533Y016603D03*
X010730Y016603D03*
X010927Y016603D03*
X011124Y016603D03*
X011320Y016603D03*
X011517Y016603D03*
X011714Y016603D03*
X011714Y013257D03*
X011517Y013257D03*
X011320Y013257D03*
X011124Y013257D03*
X010927Y013257D03*
X010730Y013257D03*
X010533Y013257D03*
X010336Y013257D03*
X010139Y013257D03*
X009943Y013257D03*
X009746Y013257D03*
X009549Y013257D03*
D26*
X008958Y013847D03*
X008958Y014044D03*
X008958Y014241D03*
X008958Y014438D03*
X008958Y014635D03*
X008958Y014831D03*
X008958Y015028D03*
X008958Y015225D03*
X008958Y015422D03*
X008958Y015619D03*
X008958Y015816D03*
X008958Y016013D03*
X012305Y016013D03*
X012305Y015816D03*
X012305Y015619D03*
X012305Y015422D03*
X012305Y015225D03*
X012305Y015028D03*
X012305Y014831D03*
X012305Y014635D03*
X012305Y014438D03*
X012305Y014241D03*
X012305Y014044D03*
X012305Y013847D03*
D27*
X013860Y003198D03*
X014116Y003198D03*
X014372Y003198D03*
X014628Y003198D03*
X014883Y003198D03*
D28*
X015120Y003001D03*
X013624Y003001D03*
D29*
X012921Y002135D03*
X015822Y002135D03*
D30*
X014372Y002135D03*
D31*
X016021Y004937D03*
X017021Y004937D03*
X018021Y004937D03*
X019021Y004937D03*
X019021Y011537D03*
X018021Y011537D03*
X017021Y011537D03*
X016021Y011537D03*
D32*
X004529Y018690D03*
X004529Y019044D03*
X004529Y019871D03*
X004529Y020225D03*
D33*
X007088Y020343D03*
X007088Y019753D03*
X007088Y019162D03*
X007088Y018572D03*
D34*
X009372Y018080D03*
X009844Y018080D03*
X010317Y018080D03*
D35*
X010903Y012371D03*
X011403Y012371D03*
X011903Y012371D03*
X012403Y012371D03*
D36*
X011360Y017686D03*
X010691Y017686D03*
D37*
X011978Y019351D03*
X012978Y019351D03*
X013978Y019351D03*
X014978Y019351D03*
X015978Y019351D03*
X015978Y020351D03*
X014978Y020351D03*
X013978Y020351D03*
X012978Y020351D03*
X011978Y020351D03*
M02*
